<?xml version="1.0" standalone="no"?>
<!DOCTYPE svg PUBLIC "-//W3C//DTD SVG 20010904//EN"
 "http://www.w3.org/TR/2001/REC-SVG-20010904/DTD/svg10.dtd">
<svg version="1.0" xmlns="http://www.w3.org/2000/svg"
 width="1198.000000pt" height="350.000000pt" viewBox="0 0 1198.000000 350.000000"
 preserveAspectRatio="xMidYMid meet">

<g transform="translate(0.000000,350.000000) scale(0.100000,-0.100000)"
fill="#000000" stroke="none">
<path d="M580 3487 c253 -13 2775 -14 3005 0 136 7 -230 10 -1505 10 -1217 0
-1634 -3 -1500 -10z"/>
<path d="M9465 3279 c-509 -364 -1262 -900 -1390 -991 -66 -46 -354 -251 -640
-454 -286 -204 -653 -464 -815 -579 -162 -114 -317 -225 -345 -245 -27 -20
-157 -112 -288 -205 -130 -93 -237 -173 -237 -179 1 -6 74 -113 163 -238 89
-125 187 -263 217 -307 35 -51 62 -80 74 -81 10 0 212 138 450 307 237 168
596 424 799 567 202 144 577 411 835 594 257 183 491 349 520 370 29 20 79 55
110 78 61 44 702 500 1812 1289 184 131 337 239 339 241 2 2 -4 15 -13 29
l-16 25 -365 0 c-287 0 -363 -3 -360 -12 5 -14 -60 -68 -82 -68 -20 0 -27 28
-15 55 l11 23 -227 1 -227 1 -310 -221z m716 169 c7 -13 17 -26 22 -30 7 -4 6
-12 -2 -22 -20 -23 -28 -20 -35 15 -4 22 -11 30 -23 27 -23 -4 -28 -32 -8 -51
20 -21 19 -30 -5 -45 -18 -11 -20 -10 -20 11 0 12 -7 33 -16 46 -16 22 -15 24
7 46 31 31 65 32 80 3z m-114 -75 c10 -16 22 -31 27 -35 6 -4 5 -13 -3 -22
-18 -21 -31 -20 -31 2 0 10 -6 26 -13 36 -12 16 -14 16 -26 2 -13 -16 -11 -27
11 -59 11 -14 10 -19 -2 -27 -23 -15 -30 -12 -30 14 0 14 -7 31 -15 40 -16 16
-20 36 -7 36 5 0 19 9 32 20 30 26 36 25 57 -7z m-102 -77 c34 -52 -40 -127
-83 -84 -19 19 -14 57 13 83 30 31 50 32 70 1z m-183 -58 c-9 -9 -12 -7 -12
12 0 19 3 21 12 12 9 -9 9 -15 0 -24z m38 -38 c10 -23 17 -29 31 -25 32 11 21
-18 -16 -42 -19 -13 -39 -23 -45 -23 -16 0 -12 18 6 28 20 11 9 56 -12 48 -22
-8 -28 14 -8 29 27 20 30 19 44 -15z m-155 -50 c4 -6 13 -5 25 2 29 18 39 -1
12 -22 -19 -16 -21 -23 -12 -40 14 -25 26 -26 40 0 12 22 30 27 30 8 0 -16
-41 -58 -56 -58 -7 0 -19 10 -25 23 -7 12 -18 26 -25 30 -8 4 -14 21 -14 37 0
29 13 40 25 20z m-45 -79 c0 -10 7 -21 15 -25 34 -13 12 -57 -42 -85 -17 -8
-22 -8 -27 5 -4 9 3 18 18 24 33 12 46 34 15 25 -40 -12 -43 -11 -47 14 -3 17
4 30 20 43 30 23 48 23 48 -1z m-102 -73 c19 -19 14 -36 -18 -55 -16 -9 -30
-21 -30 -25 0 -14 15 -9 38 12 22 21 42 26 42 11 0 -12 -58 -61 -72 -61 -21 0
-48 33 -48 57 0 26 41 73 63 73 7 0 18 -5 25 -12z m-100 -100 l22 -42 -27 -23
c-36 -29 -61 -29 -73 1 -5 13 -14 26 -21 28 -15 5 -5 38 12 38 6 0 16 -13 22
-30 12 -32 31 -39 41 -15 8 21 -3 45 -20 45 -17 0 -18 12 -2 28 18 18 21 16
46 -30z m-117 -39 c17 -17 20 -30 16 -59 -4 -30 -2 -37 9 -33 26 10 14 -23
-16 -45 -34 -25 -50 -28 -50 -8 0 8 -9 17 -19 21 -24 7 -45 57 -37 89 14 55
60 72 97 35z m-208 -202 c18 -33 19 -39 7 -47 -24 -15 -29 -12 -32 23 -2 20
-8 32 -18 32 -22 0 -25 -46 -4 -62 14 -10 15 -15 4 -28 -18 -22 -43 -19 -35 4
4 13 -2 28 -16 42 l-22 22 34 28 c19 16 40 28 47 26 7 -1 23 -19 35 -40z
m-119 -53 c23 -23 19 -61 -9 -89 -30 -31 -39 -31 -63 0 -22 28 -20 53 9 84 24
25 42 27 63 5z m355 -15 c-11 -6 -11 -11 -2 -20 9 -9 16 -9 29 2 14 12 16 11
13 -5 -2 -10 -12 -24 -21 -29 -13 -9 -21 -6 -37 14 -20 24 -20 24 -35 4 -20
-26 -20 -49 -1 -41 21 8 19 -14 -2 -30 -26 -19 -33 -17 -33 11 0 14 -4 25 -10
25 -21 0 -9 19 25 40 19 12 35 28 35 35 0 15 43 25 49 11 2 -4 -3 -12 -10 -17z
m-519 -40 c0 -5 -7 -9 -15 -9 -15 0 -20 12 -9 23 8 8 24 -1 24 -14z m25 -48
c11 -22 20 -28 35 -24 34 9 23 -15 -20 -43 -43 -29 -64 -26 -37 4 14 16 15 21
3 37 -7 10 -18 15 -24 11 -7 -4 -12 -1 -12 8 0 12 23 34 37 36 1 0 9 -13 18
-29z m373 -3 c27 -27 -3 -84 -39 -75 -11 3 -19 1 -19 -4 0 -5 -10 -19 -21 -30
-17 -17 -19 -23 -8 -30 11 -8 10 -12 -6 -25 -19 -14 -20 -13 -28 18 -5 18 -15
40 -23 49 -12 13 -10 18 17 38 23 17 34 20 42 12 14 -14 30 -14 22 -1 -9 14
21 60 38 60 7 0 18 -5 25 -12z m-478 -49 c0 -4 -7 -12 -15 -19 -10 -8 -13 -21
-9 -34 10 -31 12 -31 38 -7 33 31 44 8 12 -24 -31 -31 -52 -32 -67 -2 -7 12
-18 27 -25 32 -7 6 -11 21 -8 36 5 21 11 25 40 25 19 0 34 -3 34 -7z m330 -75
c13 -33 14 -31 -15 -50 -44 -29 -75 18 -38 58 23 25 42 23 53 -8z m-416 -19
c6 -11 17 -24 25 -31 11 -8 5 -17 -29 -42 -23 -17 -48 -28 -56 -25 -21 8 -17
44 9 72 l22 25 -27 -17 c-32 -20 -38 -5 -11 25 21 23 52 20 67 -7z m326 -15
c0 -11 7 -23 15 -26 25 -10 17 -27 -9 -20 -25 6 -47 -9 -24 -16 6 -2 8 -10 4
-16 -9 -16 -26 -15 -26 1 0 6 -7 25 -15 41 -18 34 -6 56 31 56 17 0 24 -6 24
-20z m-508 -41 c3 -9 9 -9 25 0 29 15 39 -3 12 -22 -15 -11 -19 -21 -14 -36 7
-24 33 -28 41 -6 6 15 34 22 34 8 0 -15 -45 -53 -62 -53 -10 0 -24 11 -30 25
-6 14 -18 25 -26 25 -9 0 -12 6 -8 16 3 9 6 24 6 35 0 21 16 26 22 8z m425
-44 c-29 -26 -47 -32 -47 -16 0 12 42 40 60 40 10 0 5 -8 -13 -24z m-77 7 c0
-4 -6 -14 -12 -21 -11 -10 -9 -11 7 -5 18 7 18 6 6 -9 -18 -22 -7 -49 16 -40
14 5 13 0 -6 -20 -29 -32 -45 -35 -38 -6 3 12 0 22 -9 26 -22 8 2 83 27 83 5
0 9 -4 9 -8z m-442 -23 c-2 -6 -8 -10 -13 -10 -5 0 -11 4 -13 10 -2 6 4 11 13
11 9 0 15 -5 13 -11z m33 -56 c7 -18 14 -23 29 -18 34 11 22 -18 -20 -47 -26
-18 -42 -24 -46 -16 -4 6 0 16 9 23 23 17 11 58 -14 50 -24 -8 -25 13 -2 31
21 15 31 10 44 -23z m320 -18 c8 -22 18 -34 26 -31 18 7 16 -4 -4 -26 -20 -22
-52 -26 -34 -4 15 17 -5 66 -27 66 -12 0 -12 3 -2 15 19 23 27 18 41 -20z
m-442 -36 c18 -41 25 -49 41 -44 31 10 23 -11 -13 -39 -48 -37 -76 -34 -42 4
14 16 14 21 -2 54 -9 20 -22 35 -29 32 -21 -8 -25 7 -7 26 9 10 19 18 23 18 4
0 17 -23 29 -51z m398 -30 c10 -19 9 -27 -4 -42 -24 -26 -57 -18 -61 14 -3 28
22 62 42 56 6 -2 16 -14 23 -28z m-527 -14 c0 -8 -7 -15 -15 -15 -16 0 -20 12
-8 23 11 12 23 8 23 -8z m430 0 c0 -8 -7 -15 -15 -15 -8 0 -15 -5 -15 -11 0
-6 8 -8 19 -4 22 7 44 -16 35 -39 -9 -24 -44 -40 -57 -27 -7 7 -2 13 16 20 35
14 34 23 0 19 -23 -2 -29 1 -31 21 -3 15 3 30 14 38 23 17 34 16 34 -2z m-400
-55 c14 -33 20 -36 38 -18 9 9 12 8 12 -4 0 -20 -66 -71 -81 -63 -7 5 -5 13 6
25 19 21 10 50 -16 50 -22 0 -24 11 -7 28 20 20 35 14 48 -18z m-164 -45 c5
-12 9 -12 29 1 31 20 63 10 71 -22 8 -31 -9 -72 -33 -81 -10 -3 -44 -26 -76
-50 -31 -24 -63 -43 -71 -43 -25 0 -28 33 -6 62 20 28 15 39 -8 16 -6 -6 -15
-8 -19 -4 -8 8 41 56 57 56 5 0 16 -13 25 -30 17 -33 30 -38 39 -14 7 18 -30
94 -45 94 -8 0 -7 5 1 15 16 19 29 19 36 0z m-194 -157 c22 22 46 13 68 -25
21 -36 21 -38 3 -50 -16 -13 -19 -11 -24 17 -9 41 -16 47 -35 28 -13 -12 -14
-20 -5 -37 7 -11 17 -21 23 -21 6 0 3 -9 -7 -20 -24 -27 -35 -25 -35 5 0 31
-25 81 -42 87 -10 4 -10 9 1 22 14 17 16 17 28 0 10 -14 16 -15 25 -6z m-46
-85 c3 -10 9 -25 14 -34 11 -21 -36 -69 -68 -69 -21 0 -42 26 -42 53 0 47 83
90 96 50z m-128 -46 c6 -7 9 -23 5 -35 -4 -17 -1 -22 15 -22 25 0 38 -18 24
-32 -7 -7 -17 -6 -32 2 -12 6 -29 9 -38 5 -15 -6 -15 -8 3 -21 19 -14 19 -15
-3 -36 -23 -23 -24 -22 -36 35 -4 15 -15 36 -26 47 -11 11 -20 22 -20 24 0 9
66 46 81 46 9 0 21 -6 27 -13z m-277 -184 c11 -27 11 -27 19 -7 11 27 45 42
37 17 -12 -46 -12 -48 16 -51 15 -2 27 -7 27 -11 0 -17 -30 -32 -49 -26 -17 5
-20 3 -14 -10 3 -10 0 -21 -8 -26 -22 -14 -31 -10 -24 11 6 19 -19 79 -38 91
-12 8 -2 39 13 39 6 0 15 -12 21 -27z m-41 -54 c0 -6 -9 -22 -19 -36 -25 -31
-17 -55 15 -47 35 9 30 -11 -10 -35 -41 -26 -49 -26 -41 -2 7 24 -4 51 -21 51
-23 0 -16 13 23 47 40 34 53 40 53 22z m-102 -101 c19 -19 14 -59 -10 -85 -27
-29 -52 -29 -72 -1 -21 29 -20 40 5 72 22 27 57 34 77 14z m-107 -78 c19 -69
11 -94 -20 -66 -21 19 -21 19 -21 -12 0 -49 -14 -45 -53 15 -34 52 -36 57 -20
69 26 20 34 17 27 -10 -3 -13 -1 -27 5 -30 7 -5 11 2 11 15 0 16 5 20 20 16
13 -3 20 0 20 9 0 8 -7 14 -15 14 -20 0 -19 20 2 36 23 16 25 14 44 -56z
m-297 -370 c108 -151 196 -278 196 -282 0 -3 -116 -88 -257 -189 -142 -100
-314 -222 -382 -271 -68 -48 -129 -88 -136 -88 -10 0 -405 549 -405 563 0 4
391 285 750 538 14 10 28 15 32 11 3 -4 94 -131 202 -282z"/>
<path d="M9913 3283 c-13 -5 -18 -45 -7 -56 13 -13 45 14 42 35 -3 23 -15 30
-35 21z"/>
<path d="M9580 3045 c-7 -8 -8 -15 -2 -15 5 0 15 7 22 15 7 8 8 15 2 15 -5 0
-15 -7 -22 -15z"/>
<path d="M9470 2965 c-20 -24 -6 -28 15 -5 10 11 13 20 8 20 -6 0 -16 -7 -23
-15z"/>
<path d="M9231 2828 c-20 -54 37 -95 60 -44 8 17 8 29 0 45 -15 28 -49 27 -60
-1z"/>
<path d="M8922 2578 c-16 -16 -15 -45 2 -51 8 -3 22 3 31 13 30 33 -2 69 -33
38z"/>
<path d="M9170 2474 c-9 -10 -10 -18 -2 -26 12 -12 32 -2 32 17 0 21 -16 26
-30 9z"/>
<path d="M9095 2420 c-8 -13 4 -32 16 -25 12 8 12 35 0 35 -6 0 -13 -4 -16
-10z"/>
<path d="M8605 2309 c-4 -6 -5 -13 -2 -16 7 -7 27 6 27 18 0 12 -17 12 -25 -2z"/>
<path d="M8930 2330 c0 -5 5 -10 10 -10 6 0 10 5 10 10 0 6 -4 10 -10 10 -5 0
-10 -4 -10 -10z"/>
<path d="M8050 1955 c-16 -19 -5 -47 17 -43 23 4 31 58 10 58 -8 0 -20 -7 -27
-15z"/>
<path d="M7945 1839 c-4 -6 -5 -13 -2 -16 7 -7 27 6 27 18 0 12 -17 12 -25 -2z"/>
<path d="M7715 1719 c-11 -17 0 -20 21 -4 17 13 17 14 2 15 -9 0 -20 -5 -23
-11z"/>
<path d="M7740 1690 c-18 -14 -21 -20 -9 -20 9 0 24 9 34 20 23 26 8 26 -25 0z"/>
<path d="M7595 1670 c-11 -17 5 -32 21 -19 8 6 14 15 14 20 0 12 -27 11 -35
-1z"/>
<path d="M7165 1320 c-7 -24 1 -40 20 -40 17 0 38 36 30 50 -11 17 -43 11 -50
-10z"/>
<path d="M6690 830 c-12 -8 -9 -10 12 -10 53 0 88 -87 46 -114 -25 -15 -78 37
-78 76 0 17 -4 27 -10 23 -19 -12 -11 -65 15 -90 20 -21 34 -25 82 -25 50 1
56 2 40 14 -13 10 -15 21 -11 44 5 26 1 36 -24 62 -32 32 -47 36 -72 20z"/>
<path d="M6215 743 c11 -3 24 -10 28 -17 6 -7 7 -6 4 4 -2 8 -14 16 -28 17
-19 1 -20 1 -4 -4z"/>
<path d="M6566 741 c-3 -5 4 -11 15 -14 15 -4 20 -12 17 -28 -5 -34 -27 -34
-41 0 -9 21 -17 27 -26 22 -10 -7 -3 -23 30 -70 28 -40 46 -58 53 -51 6 6 4
16 -7 28 -30 33 -21 43 24 26 27 -12 44 -13 51 -6 7 7 -2 14 -26 22 -27 9 -36
17 -36 34 0 35 -39 62 -54 37z"/>
<path d="M6152 710 c0 -19 2 -27 5 -17 2 9 2 25 0 35 -3 9 -5 1 -5 -18z"/>
<path d="M6232 660 c0 -14 2 -19 5 -12 2 6 2 18 0 25 -3 6 -5 1 -5 -13z"/>
<path d="M6148 663 c6 -2 18 -2 25 0 6 3 1 5 -13 5 -14 0 -19 -2 -12 -5z"/>
<path d="M6474 655 c11 -8 23 -15 27 -15 4 0 14 -16 23 -35 13 -26 14 -40 6
-55 -6 -11 -8 -20 -6 -20 3 0 12 12 20 28 25 48 -16 113 -71 112 -17 -1 -17
-2 1 -15z"/>
<path d="M6710 494 c-135 -97 -294 -210 -353 -251 -59 -41 -106 -78 -103 -80
4 -4 677 468 711 498 6 6 6 9 0 9 -6 0 -120 -80 -255 -176z"/>
<path d="M6424 634 c-13 -19 -15 -32 -8 -51 12 -33 56 -66 80 -61 16 4 16 6
-7 16 -47 19 -74 83 -47 110 7 7 9 12 5 12 -3 0 -14 -12 -23 -26z"/>
<path d="M5975 600 c-4 -29 -3 -56 1 -60 13 -12 104 -24 104 -14 1 5 5 28 9
52 10 49 3 55 -65 67 l-42 6 -7 -51z"/>
<path d="M6361 593 c0 -5 7 -24 15 -43 9 -22 12 -26 9 -10 -2 14 -5 33 -5 43
0 9 -4 17 -10 17 -5 0 -10 -3 -9 -7z"/>
<path d="M6295 551 c-3 -6 3 -19 15 -31 11 -11 20 -29 20 -41 0 -19 -3 -19
-39 10 -43 34 -51 37 -51 19 1 -15 109 -92 117 -84 4 3 1 18 -6 32 -15 35 -8
41 25 20 14 -10 28 -15 31 -13 9 9 -8 48 -18 41 -5 -3 -27 9 -48 26 -23 17
-42 26 -46 21z"/>
<path d="M6115 395 c-3 -31 -5 -58 -3 -59 9 -7 109 -22 112 -17 9 15 17 109 9
114 -4 2 -31 8 -59 12 l-52 7 -7 -57z"/>
<path d="M10253 3483 c-7 -3 -13 -12 -13 -21 0 -15 2 -15 17 1 18 18 16 27 -4
20z"/>
<path d="M11100 3120 c-47 -33 -103 -72 -125 -88 -42 -28 -91 -71 -65 -56 19
10 262 183 275 195 23 22 -7 4 -85 -51z"/>
<path d="M10839 2938 c-24 -18 -50 -38 -57 -45 -7 -7 -17 -13 -21 -13 -4 0
-16 -8 -27 -18 -10 -9 -49 -37 -86 -62 -37 -25 -68 -49 -68 -53 0 -8 25 9 159
106 36 26 82 58 103 72 32 21 56 45 46 45 -2 0 -24 -15 -49 -32z"/>
<path d="M11354 2785 c3 -9 -1 -18 -9 -21 -8 -4 -15 -14 -15 -24 0 -13 -6 -17
-18 -13 -29 7 -45 -19 -31 -51 17 -36 30 -33 23 7 -5 31 -5 31 11 12 12 -13
19 -16 22 -8 2 7 10 10 16 8 7 -3 20 2 29 9 17 12 17 15 0 54 -9 23 -21 42
-26 42 -4 0 -5 -7 -2 -15z m16 -55 c0 -11 -4 -20 -10 -20 -5 0 -10 9 -10 20 0
11 5 20 10 20 6 0 10 -9 10 -20z"/>
<path d="M10409 2629 c-85 -61 -161 -114 -169 -119 -8 -5 -13 -10 -10 -13 4
-3 314 214 336 236 25 24 -22 -6 -157 -104z"/>
<path d="M11048 2721 c-8 -12 -18 -18 -21 -15 -11 11 -37 -17 -37 -40 0 -12 5
-27 12 -34 8 -8 8 -12 1 -12 -6 0 -16 14 -22 30 -11 34 -16 36 -37 16 -19 -20
-18 -39 6 -67 21 -26 27 -11 10 22 -7 13 -7 19 0 19 5 0 10 -3 10 -7 0 -5 4
-14 9 -22 7 -11 14 -10 40 8 17 12 31 27 31 33 0 6 -6 6 -15 -2 -22 -18 -18
-3 5 20 16 16 20 17 20 5 0 -8 4 -15 9 -15 8 0 4 68 -4 78 -2 2 -9 -6 -17 -17z"/>
<path d="M11226 2681 c-9 -14 5 -71 18 -71 6 0 19 7 29 14 18 14 18 16 2 40
-17 26 -39 34 -49 17z"/>
<path d="M11423 2667 c3 -8 -1 -21 -9 -27 -8 -7 -14 -18 -14 -25 0 -8 -8 -11
-18 -8 -29 7 -45 -19 -31 -51 15 -33 32 -35 19 -2 -12 33 -1 40 21 13 15 -18
18 -19 19 -5 0 11 6 15 18 11 32 -8 44 19 27 60 -14 35 -45 67 -32 34z m17
-57 c0 -11 -4 -20 -10 -20 -5 0 -10 9 -10 20 0 11 5 20 10 20 6 0 10 -9 10
-20z"/>
<path d="M315 2500 l-160 -160 160 -160 c88 -88 164 -160 170 -160 6 0 82 72
170 160 l160 160 -160 160 c-88 88 -164 160 -170 160 -6 0 -82 -72 -170 -160z"/>
<path d="M1115 2500 l-160 -160 163 -163 162 -162 162 162 163 163 -160 160
c-88 88 -162 160 -165 160 -3 0 -77 -72 -165 -160z"/>
<path d="M11151 2645 c0 -5 6 -19 14 -29 8 -11 15 -30 15 -43 0 -13 5 -23 10
-23 19 0 10 45 -15 75 -13 17 -24 26 -24 20z"/>
<path d="M10897 2619 c-9 -6 -17 -19 -17 -30 0 -13 -4 -18 -12 -13 -15 10 -58
12 -58 3 0 -16 31 -79 39 -79 5 0 19 12 30 26 11 14 24 23 29 20 17 -10 33 21
26 48 -8 32 -15 37 -37 25z m33 -43 c0 -3 -4 -8 -10 -11 -5 -3 -10 -1 -10 4 0
6 5 11 10 11 6 0 10 -2 10 -4z m-60 -32 c0 -16 -16 -19 -25 -4 -8 13 4 32 16
25 5 -4 9 -13 9 -21z"/>
<path d="M11115 2600 c-10 -16 5 -70 20 -70 17 0 38 27 30 40 -3 5 -16 10 -28
10 -20 0 -20 0 -1 15 17 13 17 14 2 15 -9 0 -20 -5 -23 -10z"/>
<path d="M11074 2561 c6 -32 34 -76 43 -67 2 2 -8 25 -23 52 -25 47 -26 47
-20 15z"/>
<path d="M11303 2563 c-7 -2 -13 -11 -13 -19 0 -17 20 -19 20 -1 0 6 5 4 11
-6 6 -10 8 -21 5 -24 -3 -4 -6 -1 -6 6 0 7 -4 9 -10 6 -15 -9 -12 -35 3 -35 7
0 22 6 32 14 18 13 18 15 2 40 -18 26 -22 28 -44 19z"/>
<path d="M11029 2537 c-9 -7 -14 -18 -12 -25 3 -8 -1 -10 -12 -6 -11 5 -26 -3
-42 -20 -23 -25 -24 -30 -13 -54 11 -21 14 -23 17 -10 3 10 10 15 19 11 23 -9
62 41 57 71 -6 32 12 35 22 4 3 -13 9 -18 11 -11 6 13 -13 53 -24 53 -4 0 -14
-6 -23 -13z m-24 -65 c0 -18 -20 -15 -23 4 -3 10 1 15 10 12 7 -3 13 -10 13
-16z"/>
<path d="M10747 2510 c-9 -13 -20 -18 -31 -14 -11 4 -16 1 -16 -10 0 -9 5 -16
10 -16 6 0 10 -6 10 -14 0 -7 7 -19 15 -26 12 -10 15 -10 15 3 0 9 -4 19 -10
22 -5 3 -10 11 -10 17 0 6 9 3 20 -7 24 -22 50 -13 50 18 0 22 -16 47 -31 47
-5 0 -14 -9 -22 -20z m36 -14 c6 -15 -1 -26 -15 -26 -4 0 -8 9 -8 20 0 23 15
27 23 6z"/>
<path d="M11215 2500 c-3 -6 -3 -19 0 -31 5 -16 10 -18 21 -8 8 6 14 7 14 2 0
-8 -13 -17 -62 -41 -16 -7 -7 27 8 36 13 7 13 11 4 17 -15 9 -60 -37 -60 -62
0 -14 -2 -15 -9 -4 -5 8 -16 11 -27 7 -10 -4 -21 -1 -27 6 -5 9 -7 3 -3 -14 5
-23 3 -28 -13 -28 -29 0 -45 -24 -31 -50 6 -12 9 -24 7 -27 -3 -2 -8 5 -12 17
-5 15 -13 20 -28 18 -17 -2 -22 -9 -20 -32 3 -37 19 -54 35 -38 7 7 22 12 35
12 13 0 23 6 23 13 0 7 9 23 21 36 15 15 19 30 15 47 -7 28 8 32 24 7 8 -13
13 -14 16 -5 3 6 10 9 16 6 6 -4 8 2 3 17 -7 22 -7 22 11 5 17 -18 18 -18 34
0 9 11 25 24 35 30 30 17 31 44 3 45 -13 0 -17 3 -10 6 6 2 12 9 12 14 0 12
-27 12 -35 -1z m-145 -161 c0 -11 -4 -17 -10 -14 -5 3 -10 13 -10 21 0 8 5 14
10 14 6 0 10 -9 10 -21z"/>
<path d="M10194 2474 c-18 -14 -18 -15 4 -4 12 6 22 13 22 15 0 8 -5 6 -26
-11z"/>
<path d="M10654 2461 c3 -5 -1 -14 -9 -21 -8 -7 -15 -18 -15 -25 0 -8 -8 -11
-20 -8 -14 4 -23 -2 -31 -21 -7 -14 -16 -23 -21 -20 -13 8 -49 -26 -42 -38 4
-6 -2 -8 -14 -4 -14 5 -25 0 -36 -16 -9 -12 -16 -17 -16 -10 0 6 -5 12 -11 12
-7 0 -9 -9 -5 -24 5 -20 3 -23 -18 -19 -18 4 -26 0 -31 -16 -3 -12 -11 -18
-17 -15 -7 5 -9 0 -5 -15 4 -18 2 -21 -14 -16 -24 8 -25 -7 -1 -28 26 -24 32
-21 32 15 0 30 0 31 20 13 16 -15 22 -16 35 -5 10 8 13 20 9 34 -6 18 -5 19
10 7 9 -8 16 -9 16 -3 0 6 10 12 22 14 14 2 24 12 28 28 l6 25 8 -22 c4 -13
12 -23 18 -23 5 0 8 7 4 15 -3 8 -1 15 4 15 5 0 12 9 15 20 3 11 14 20 24 20
22 0 41 19 35 35 -4 8 2 11 19 8 37 -7 49 16 30 60 -10 20 -21 37 -26 37 -4 0
-6 -4 -3 -9z m16 -62 c0 -11 -4 -17 -10 -14 -5 3 -10 15 -10 26 0 11 5 17 10
14 6 -3 10 -15 10 -26z m-50 -39 c0 -5 -5 -10 -11 -10 -5 0 -7 5 -4 10 3 6 8
10 11 10 2 0 4 -4 4 -10z m-60 -30 c0 -11 -4 -20 -9 -20 -11 0 -22 26 -14 34
12 12 23 5 23 -14z m-52 -43 c2 -10 -3 -17 -12 -17 -10 0 -16 9 -16 21 0 24
23 21 28 -4z m-78 -61 c0 -3 -4 -8 -10 -11 -5 -3 -10 -1 -10 4 0 6 5 11 10 11
6 0 10 -2 10 -4z"/>
<path d="M10907 2450 c-6 -22 -37 -28 -38 -7 0 6 -5 3 -10 -8 -21 -44 -35 -60
-49 -60 -8 0 -19 -9 -25 -20 -5 -11 -17 -19 -27 -17 -9 2 -22 -5 -30 -15 -7
-10 -20 -19 -28 -21 -31 -7 -39 -42 -15 -66 17 -17 45 -11 45 9 0 8 10 15 22
17 16 2 25 12 29 33 4 17 7 24 8 18 0 -7 5 -13 11 -13 5 0 7 13 4 30 -7 35 11
42 21 9 4 -12 10 -17 14 -11 3 5 15 11 26 13 11 2 25 14 31 27 6 12 14 19 18
14 4 -4 5 7 2 23 -6 28 -6 28 5 8 7 -13 16 -23 21 -23 11 0 10 17 -2 25 -5 3
-10 15 -10 25 0 27 -17 34 -23 10z m-27 -76 c0 -16 -16 -19 -25 -4 -8 13 4 32
16 25 5 -4 9 -13 9 -21z m-112 -78 c3 -12 -1 -17 -10 -14 -7 3 -15 13 -16 22
-3 12 1 17 10 14 7 -3 15 -13 16 -22z m-48 -36 c-12 -22 -30 -18 -30 6 0 8 9
14 20 14 18 0 19 -3 10 -20z"/>
<path d="M10106 2414 c-33 -24 -57 -44 -53 -44 5 0 71 44 116 77 2 2 2 5 0 7
-2 2 -31 -16 -63 -40z"/>
<path d="M11584 2436 c-6 -15 24 -76 38 -76 4 0 0 20 -9 45 -16 48 -21 53 -29
31z"/>
<path d="M11550 2386 c-6 -8 -10 -25 -8 -38 2 -17 10 -23 28 -23 18 0 26 6 28
23 3 22 -13 52 -28 52 -4 0 -13 -7 -20 -14z m30 -26 c0 -11 -4 -20 -10 -20 -5
0 -10 9 -10 20 0 11 5 20 10 20 6 0 10 -9 10 -20z"/>
<path d="M11231 2336 c-6 -7 -10 -20 -8 -27 2 -8 2 -11 0 -6 -10 17 -43 6 -48
-16 -5 -19 -12 -23 -37 -21 -46 3 -60 -5 -55 -32 4 -24 -7 -33 -18 -14 -12 19
-25 10 -25 -17 -1 -25 -2 -26 -14 -11 -23 31 -26 7 -3 -28 28 -43 51 -45 45
-4 -4 27 -3 29 12 15 27 -25 33 -18 27 33 l-5 47 16 -32 c9 -18 19 -33 24 -33
11 0 10 7 -3 32 -16 30 0 36 23 8 l20 -25 -5 23 c-5 19 -3 21 9 11 18 -14 44
-5 44 17 0 13 -3 14 -15 4 -9 -7 -15 -8 -15 -2 0 13 26 23 45 16 18 -7 19 0 5
26 -7 13 -7 21 1 25 6 4 13 -2 16 -14 3 -12 9 -21 14 -21 11 0 11 3 -1 34 -10
29 -31 34 -49 12z"/>
<path d="M11470 2344 c0 -11 34 -64 41 -64 4 0 2 16 -4 35 -6 19 -16 35 -24
35 -7 0 -13 -3 -13 -6z"/>
<path d="M11431 2301 c-6 -10 -7 -21 -4 -25 4 -3 -4 -5 -16 -4 -30 4 -50 -25
-35 -49 16 -26 48 -23 52 4 2 14 8 20 18 16 11 -4 13 2 8 28 l-6 34 21 -25
c23 -28 26 -24 11 14 -11 30 -35 34 -49 7z m-11 -71 c0 -5 -5 -10 -11 -10 -5
0 -7 5 -4 10 3 6 8 10 11 10 2 0 4 -4 4 -10z"/>
<path d="M10936 2301 c-4 -5 -3 -17 0 -28 5 -14 4 -15 -4 -4 -13 18 -42 7 -49
-19 -3 -11 -9 -18 -13 -15 -17 11 -40 -8 -40 -34 0 -20 -2 -23 -10 -11 -8 13
-13 13 -37 -2 -15 -9 -33 -25 -38 -35 -6 -11 -16 -18 -24 -15 -8 3 -21 -4 -29
-14 -10 -13 -16 -15 -19 -6 -3 6 -9 12 -14 12 -4 0 -6 -6 -3 -13 3 -8 -2 -20
-11 -27 -8 -7 -15 -19 -15 -26 0 -8 -6 -11 -16 -7 -21 8 -45 -22 -37 -45 4
-13 2 -14 -4 -4 -11 15 -57 2 -70 -21 -4 -8 -17 -16 -28 -18 -13 -3 -21 -14
-23 -32 -2 -16 -9 -27 -18 -27 -8 0 -12 5 -9 10 10 16 -11 12 -25 -5 -15 -18
-5 -35 23 -36 17 -1 18 -2 5 -6 -23 -6 -23 -26 -1 -21 10 2 22 12 28 23 5 11
17 20 25 20 8 0 19 9 25 21 5 11 16 19 23 16 13 -4 59 36 55 49 -1 3 8 5 20 5
12 -1 26 8 32 20 5 11 16 19 22 17 15 -5 43 20 43 37 0 6 5 8 10 5 17 -10 41
16 35 36 -4 11 -2 19 4 19 6 0 11 -4 11 -10 0 -5 5 -10 10 -10 7 0 7 6 0 19
-5 11 -10 24 -10 30 0 19 18 12 25 -9 3 -11 11 -20 17 -20 5 0 8 6 5 13 -3 6
-8 20 -12 30 -10 25 10 21 23 -5 9 -19 11 -20 11 -5 1 13 6 17 20 12 13 -4 24
1 35 17 13 18 18 20 25 9 13 -21 41 -5 41 23 0 13 4 26 9 28 5 2 6 18 4 36 -5
31 -16 41 -27 23z m-12 -57 c9 -22 8 -24 -9 -24 -8 0 -15 9 -15 20 0 24 15 27
24 4z m-54 -44 c0 -11 -4 -20 -9 -20 -11 0 -22 26 -14 34 12 12 23 5 23 -14z
m-140 -110 c0 -5 -5 -10 -11 -10 -5 0 -7 5 -4 10 3 6 8 10 11 10 2 0 4 -4 4
-10z m-57 -24 c6 -16 -2 -28 -14 -20 -12 7 -11 34 0 34 5 0 11 -6 14 -14z
m-53 -47 c0 -24 -23 -21 -28 4 -2 10 3 17 12 17 10 0 16 -9 16 -21z m-70 -54
c-17 -21 -30 -19 -30 4 0 11 8 21 18 23 22 5 27 -8 12 -27z m-60 -35 c0 -11
-4 -20 -9 -20 -11 0 -22 26 -14 34 12 12 23 5 23 -14z"/>
<path d="M11330 2245 c0 -8 -9 -24 -20 -35 -11 -11 -15 -22 -10 -25 6 -4 10
-16 11 -28 0 -12 3 -16 6 -9 2 6 11 12 19 12 8 0 14 5 14 10 0 6 -4 10 -10 10
-5 0 -10 10 -10 23 l0 22 20 -25 c21 -27 37 -23 21 7 -5 10 -12 26 -15 36 -7
21 -26 23 -26 2z"/>
<path d="M10580 2235 c0 -14 30 -75 36 -75 3 0 2 17 -1 38 l-6 37 20 -25 c24
-30 35 -24 18 10 -9 17 -21 25 -40 25 -15 1 -27 -4 -27 -10z"/>
<path d="M9948 2218 c12 -13 22 -30 22 -38 0 -7 3 -11 6 -7 11 11 -7 47 -29
58 l-22 12 23 -25z"/>
<path d="M10542 2211 c-16 -10 -7 -54 14 -72 17 -14 19 2 3 34 -10 21 -9 21 5
3 8 -10 17 -24 19 -30 2 -6 7 -8 11 -5 8 7 -21 79 -32 79 -4 0 -13 -4 -20 -9z"/>
<path d="M9900 2195 c0 -18 -12 -19 -28 -3 -7 7 -12 8 -12 2 0 -5 5 -15 11
-21 9 -9 7 -11 -7 -7 -31 7 -48 -10 -34 -35 10 -20 10 -21 -9 -9 -16 10 -23
10 -33 0 -6 -6 -8 -15 -4 -19 4 -4 11 -2 15 6 6 10 10 9 15 -5 4 -10 4 -15 0
-11 -4 4 -14 -2 -21 -13 -15 -22 -38 -17 -29 6 3 8 1 14 -5 14 -5 0 -12 -6
-15 -14 -3 -8 -12 -17 -21 -20 -11 -5 -14 -2 -9 11 6 15 5 16 -6 5 -9 -9 -10
-17 -1 -31 10 -16 8 -17 -13 -13 -15 3 -26 -1 -30 -11 -3 -9 -11 -14 -18 -11
-7 3 -19 -2 -26 -11 -10 -12 -10 -18 1 -32 13 -15 12 -15 -8 -2 -30 18 -50 1
-34 -30 14 -25 24 -26 41 -7 6 8 17 13 24 10 8 -3 16 5 20 21 5 21 10 24 20
16 10 -8 16 -5 26 14 7 14 21 27 31 30 12 4 16 12 12 23 -5 14 -3 15 7 5 10
-9 24 -3 66 30 30 23 54 47 54 54 0 7 7 10 17 6 13 -5 15 -3 9 13 -6 15 -5 16
5 7 17 -17 39 2 32 27 -6 23 -43 27 -43 5z m-30 -61 c0 -8 -4 -12 -10 -9 -5 3
-10 10 -10 16 0 5 5 9 10 9 6 0 10 -7 10 -16z m-170 -114 c0 -5 -4 -10 -10
-10 -5 0 -10 5 -10 10 0 6 5 10 10 10 6 0 10 -4 10 -10z m-42 -39 c3 -8 -1
-12 -9 -9 -7 2 -15 10 -17 17 -3 8 1 12 9 9 7 -2 15 -10 17 -17z m-53 -32 c11
-16 1 -19 -13 -3 -7 8 -8 14 -3 14 5 0 13 -5 16 -11z"/>
<path d="M10292 2188 c-7 -7 -12 -19 -12 -27 -1 -11 -5 -8 -14 8 -8 15 -16 20
-20 12 -4 -6 -4 -11 0 -11 4 0 -1 -9 -11 -20 -22 -24 -13 -70 14 -70 23 0 45
25 36 40 -4 7 2 9 18 5 24 -6 46 9 32 23 -3 3 -10 0 -15 -8 -6 -8 -10 -10 -10
-4 0 5 5 15 11 21 12 12 6 43 -9 43 -4 0 -13 -5 -20 -12z m-28 -64 c9 -22 8
-24 -9 -24 -8 0 -15 9 -15 20 0 24 15 27 24 4z"/>
<path d="M11240 2165 c-10 -12 -9 -20 4 -40 14 -21 20 -24 37 -14 12 6 18 17
15 26 -3 8 -6 21 -6 29 0 19 -34 18 -50 -1z m40 -35 c0 -5 -5 -10 -11 -10 -5
0 -7 5 -4 10 3 6 8 10 11 10 2 0 4 -4 4 -10z"/>
<path d="M10490 2155 c-17 -21 -5 -31 17 -14 17 13 17 13 1 -7 -23 -27 -23
-44 1 -44 32 0 46 26 31 55 -15 29 -32 32 -50 10z m40 -35 c0 -5 -5 -10 -11
-10 -5 0 -7 5 -4 10 3 6 8 10 11 10 2 0 4 -4 4 -10z"/>
<path d="M11910 2131 c-14 -10 -181 -128 -371 -264 -191 -135 -364 -258 -386
-274 -22 -15 -89 -63 -149 -106 -60 -42 -129 -91 -154 -109 -25 -17 -223 -158
-440 -313 -375 -267 -1086 -773 -1363 -969 l-128 -91 117 -3 c108 -2 118 -1
131 18 15 21 57 27 68 10 3 -5 -3 -10 -14 -10 -11 0 -22 -4 -25 -9 -4 -5 24
-9 63 -10 l69 0 -15 55 c-22 76 -9 87 51 44 44 -32 64 -69 31 -56 -23 8 -45
-4 -45 -25 0 -18 9 -19 123 -19 l124 0 159 113 c87 63 301 214 474 337 173
123 549 391 835 595 287 203 607 431 713 505 l191 135 1 216 c0 193 -2 218
-17 232 -16 14 -20 14 -43 -2z m-437 -542 c40 -58 33 -72 -27 -49 -29 10 -35
0 -11 -20 19 -16 19 -30 1 -30 -18 0 -77 80 -70 92 6 9 30 6 71 -9 17 -6 17
-6 1 14 -10 11 -18 25 -18 31 0 24 26 10 53 -29z m-89 -72 c19 -26 19 -30 5
-55 -32 -58 -109 -30 -109 40 0 53 68 63 104 15z m-101 -68 c30 -43 34 -59 15
-59 -14 1 -68 73 -68 90 0 22 27 7 53 -31z m-68 1 c-4 -13 1 -31 14 -49 12
-16 21 -34 21 -40 0 -22 -20 -10 -42 24 -18 27 -28 33 -45 28 -33 -8 -28 8 10
35 39 27 50 28 42 2z m-59 -82 c46 -33 53 -55 16 -50 -16 2 -25 -4 -32 -23 -5
-14 -14 -24 -19 -21 -13 8 -34 103 -26 116 9 14 12 13 61 -22z m-83 -57 c36
-52 37 -100 0 -53 -12 15 -13 14 -7 -10 7 -33 -9 -37 -39 -10 -19 16 -20 16
-8 -6 24 -45 -2 -43 -35 4 -26 36 -31 50 -23 60 9 11 17 10 40 -7 30 -21 33
-18 20 16 -8 19 3 45 18 45 3 0 18 -18 34 -39z m-119 -66 c6 -10 19 -28 29
-39 12 -15 14 -23 6 -30 -8 -8 -13 -7 -16 2 -6 17 -43 15 -43 -2 0 -8 5 -18
11 -22 8 -4 7 -10 -1 -18 -12 -12 -36 13 -65 66 -14 25 -13 27 18 47 36 23 46
23 61 -4z m-82 -72 c27 -32 28 -52 4 -80 -21 -24 -27 -26 -52 -18 -16 6 -35
23 -42 38 -12 24 -11 32 2 53 20 29 66 33 88 7z m-112 -42 c0 -5 -10 -15 -22
-24 -28 -18 -18 -33 11 -18 25 14 39 -4 14 -18 -16 -9 -16 -13 -5 -32 9 -14
10 -25 4 -31 -6 -6 -23 7 -47 38 l-36 49 28 22 c29 23 53 30 53 14z m-56 -96
c15 -25 25 -49 22 -53 -4 -3 -21 -1 -38 6 -35 13 -48 8 -30 -10 14 -14 16 -38
2 -38 -9 0 -70 83 -70 96 0 7 42 0 74 -12 19 -7 19 -7 3 16 -20 29 -21 40 -4
40 6 0 25 -20 41 -45z m-97 -62 c34 -49 35 -77 1 -46 -21 19 -48 65 -48 83 0
21 16 9 47 -37z m-75 -40 c24 -22 23 -62 -4 -90 -12 -13 -25 -23 -29 -23 -5 0
-22 21 -40 47 l-32 46 23 19 c28 22 58 23 82 1z m-89 -74 c40 -58 33 -80 -18
-53 -35 18 -44 11 -20 -16 13 -15 15 -24 8 -31 -8 -8 -21 2 -47 37 -38 53 -34
76 9 56 39 -18 47 -15 30 11 -13 21 -12 38 4 37 3 -1 18 -19 34 -41z m-95 -64
c12 -19 22 -40 22 -47 0 -18 -31 -48 -51 -48 -15 0 -79 68 -79 84 0 17 31 2
50 -24 22 -30 50 -40 50 -17 0 6 -9 26 -20 42 -23 35 -25 45 -7 45 6 0 22 -16
35 -35z m-78 -85 c15 -35 0 -67 -34 -76 -67 -16 -108 82 -47 112 32 16 66 1
81 -36z m-123 -37 c3 -10 15 -28 26 -40 24 -27 13 -52 -13 -28 -25 23 -41 11
-33 -25 8 -43 -7 -37 -45 18 l-33 47 28 22 c34 27 61 29 70 6z m-99 -70 c2 -8
-6 -13 -22 -13 -36 0 -44 -26 -17 -53 20 -20 22 -20 38 -4 16 16 16 17 0 17
-21 0 -22 14 -1 31 14 11 19 9 34 -11 19 -25 19 -25 -11 -52 -36 -33 -39 -34
-73 -7 -30 24 -35 69 -10 94 18 18 55 17 62 -2z m-114 -78 c-5 -19 0 -25 30
-35 47 -15 48 -34 1 -26 -34 7 -35 6 -29 -18 9 -39 -12 -32 -46 16 -34 46 -37
58 -15 58 8 0 15 -4 15 -10 0 -5 5 -10 10 -10 6 0 10 11 10 23 0 27 9 39 21
31 5 -3 6 -16 3 -29z m-76 -57 c-3 -7 -13 -13 -24 -13 -22 0 -31 -30 -14 -50
19 -23 39 -18 50 11 10 26 30 25 30 -2 0 -19 -36 -54 -55 -54 -24 0 -65 46
-65 73 0 12 5 28 12 35 16 16 71 16 66 0z m-80 -89 c44 -32 46 -44 9 -44 -15
0 -23 -7 -25 -22 -6 -40 -30 -25 -46 29 -23 78 -7 88 62 37z m-97 -51 c37 -41
37 -61 0 -87 l-29 -21 -31 39 c-17 21 -31 45 -31 53 0 10 43 46 58 48 2 0 16
-15 33 -32z m-121 -88 c28 -28 25 -64 -6 -89 -31 -24 -41 -19 -76 37 l-21 35
22 18 c30 24 56 24 81 -1z m-60 -117 c0 -20 -15 -23 -45 -7 -34 17 -44 11 -22
-14 21 -23 21 -32 2 -32 -16 0 -65 67 -65 88 0 14 22 12 65 -5 16 -6 16 -4 1
19 -9 13 -13 28 -9 32 9 9 73 -63 73 -81z"/>
<path d="M11317 1515 c-18 -18 -13 -41 13 -55 11 -6 21 -5 28 2 17 17 15 32
-7 52 -17 15 -20 16 -34 1z"/>
<path d="M11120 1340 c0 -5 5 -10 10 -10 6 0 10 5 10 10 0 6 -4 10 -10 10 -5
0 -10 -4 -10 -10z"/>
<path d="M10910 1230 c-11 -7 -12 -12 -4 -20 8 -8 14 -7 23 4 14 17 1 28 -19
16z"/>
<path d="M10811 1156 c-17 -20 3 -56 30 -56 27 0 35 27 14 50 -22 24 -29 25
-44 6z"/>
<path d="M10474 919 c-8 -14 16 -59 32 -59 19 0 24 26 8 49 -17 23 -29 27 -40
10z"/>
<path d="M10191 716 c-17 -20 3 -56 30 -56 27 0 35 27 14 50 -22 24 -29 25
-44 6z"/>
<path d="M10095 649 c-10 -15 1 -23 20 -15 9 3 13 10 10 16 -8 13 -22 13 -30
-1z"/>
<path d="M9740 360 c0 -5 5 -10 11 -10 5 0 7 5 4 10 -3 6 -8 10 -11 10 -2 0
-4 -4 -4 -10z"/>
<path d="M9633 323 c-18 -7 -16 -23 2 -23 8 0 15 7 15 15 0 8 -1 15 -2 14 -2
0 -9 -3 -15 -6z"/>
<path d="M9655 279 c-4 -6 -5 -13 -2 -16 7 -7 27 6 27 18 0 12 -17 12 -25 -2z"/>
<path d="M9503 229 c-14 -14 11 -59 33 -59 19 0 18 35 -2 54 -18 19 -17 19
-31 5z"/>
<path d="M10443 2123 c-7 -2 -13 -17 -13 -31 0 -15 -4 -22 -8 -16 -6 11 -62
17 -62 7 0 -2 7 -19 14 -38 18 -41 41 -49 26 -9 -12 31 -12 34 -1 34 5 0 13
-9 16 -20 4 -11 11 -18 16 -14 5 3 7 10 3 15 -3 6 4 7 19 4 30 -8 41 13 27 50
-10 25 -15 28 -37 18z m30 -47 c-3 -4 -9 -2 -14 5 -13 22 -11 31 5 17 8 -7 12
-17 9 -22z"/>
<path d="M10913 2100 c-3 -11 -13 -20 -23 -20 -32 0 -43 -25 -25 -57 l16 -28
-6 33 c-7 35 7 44 24 15 9 -16 12 -16 21 -3 9 13 14 7 11 -12 -2 -14 26 -9 39
7 18 22 -5 85 -32 85 -11 0 -22 -8 -25 -20z m37 -20 c0 -11 -4 -20 -9 -20 -11
0 -22 26 -14 34 12 12 23 5 23 -14z"/>
<path d="M11160 2095 c0 -15 -4 -24 -10 -20 -6 4 -24 8 -41 10 -27 4 -29 2
-23 -18 7 -22 33 -67 40 -67 1 0 0 16 -3 37 -4 26 -3 34 5 29 7 -4 12 -14 12
-22 0 -8 5 -14 10 -14 6 0 10 7 10 16 0 13 3 14 14 5 11 -9 17 -8 30 4 20 20
7 59 -23 63 -17 3 -21 -2 -21 -23z m40 -19 c0 -3 -4 -8 -10 -11 -5 -3 -10 -1
-10 4 0 6 5 11 10 11 6 0 10 -2 10 -4z"/>
<path d="M10147 2086 c-11 -8 -15 -20 -11 -32 4 -15 4 -16 -4 -5 -12 17 -40 8
-50 -16 -4 -10 -16 -18 -27 -18 -13 0 -21 -8 -23 -21 -2 -17 -9 -20 -41 -18
l-39 2 16 -39 c17 -43 50 -54 59 -19 3 13 14 20 28 20 23 0 40 24 29 41 -3 6
4 7 18 4 26 -7 55 16 43 34 -3 7 0 8 9 5 13 -5 15 0 10 27 -5 34 -5 34 12 12
24 -33 37 -28 19 7 -17 34 -22 35 -48 16z m-27 -50 c0 -3 -4 -8 -10 -11 -5 -3
-10 -1 -10 4 0 6 5 11 10 11 6 0 10 -2 10 -4z m10 -26 c0 -5 -5 -10 -11 -10
-5 0 -7 5 -4 10 3 6 8 10 11 10 2 0 4 -4 4 -10z m-60 -42 c0 -19 -16 -5 -17
14 -2 18 0 20 7 8 5 -8 10 -18 10 -22z m-52 -32 c3 -12 -1 -17 -10 -14 -7 3
-15 13 -16 22 -3 12 1 17 10 14 7 -3 15 -13 16 -22z"/>
<path d="M10985 2090 c-3 -5 -1 -10 4 -10 6 0 11 5 11 10 0 6 -2 10 -4 10 -3
0 -8 -4 -11 -10z"/>
<path d="M11060 2050 c0 -19 30 -70 41 -70 6 0 9 3 7 8 -3 4 -11 22 -18 40
-14 31 -30 43 -30 22z"/>
<path d="M10317 2033 c-11 -10 -8 -28 7 -49 14 -18 15 -16 13 18 -2 37 -7 45
-20 31z"/>
<path d="M10830 2026 c0 -7 7 -19 15 -26 16 -13 20 -3 9 24 -8 20 -24 21 -24
2z"/>
<path d="M10781 2016 c-6 -7 -8 -22 -4 -32 6 -17 5 -17 -10 -5 -14 11 -20 11
-32 1 -8 -7 -15 -18 -15 -25 0 -8 -11 -11 -30 -9 -32 4 -37 -5 -19 -38 9 -16
7 -24 -5 -37 -15 -14 -18 -14 -26 -1 -7 11 -5 19 7 27 9 7 14 16 10 19 -9 9
-37 -15 -37 -31 0 -8 -8 -11 -18 -8 -28 7 -44 -19 -32 -51 5 -14 14 -26 20
-26 6 0 5 9 -2 25 -16 35 -1 45 24 15 11 -14 18 -18 15 -9 -4 12 0 15 19 11
16 -3 26 1 30 12 3 9 12 16 20 16 18 0 18 5 -2 35 -20 31 -2 33 20 3 11 -15
15 -17 12 -6 -4 13 1 16 22 15 21 -2 28 3 30 21 3 19 6 21 19 11 13 -11 14 -8
8 27 l-6 39 20 -25 c23 -28 27 -23 9 15 -12 28 -30 32 -47 11z m-18 -60 c6
-15 -1 -26 -15 -26 -4 0 -8 9 -8 20 0 23 15 27 23 6z"/>
<path d="M11010 2022 c0 -18 -36 -63 -43 -55 -4 3 -14 0 -23 -8 -11 -9 -14
-22 -10 -43 6 -30 6 -31 -9 -9 -16 23 -40 22 -49 -3 -5 -12 -1 -14 17 -9 19 5
20 4 5 -5 -20 -12 -24 -35 -8 -45 6 -3 24 4 41 15 25 19 29 27 24 51 -7 30 8
41 19 14 3 -8 10 -15 16 -15 6 0 8 5 4 12 -5 7 -2 9 7 6 24 -9 52 18 46 44 -8
29 -36 68 -37 50z m20 -56 c0 -8 -4 -18 -10 -21 -5 -3 -10 -4 -10 -1 0 2 -3
11 -6 20 -4 11 -1 16 10 16 9 0 16 -6 16 -14z"/>
<path d="M10290 1999 c0 -10 -8 -15 -22 -15 -12 1 -27 -8 -33 -19 -11 -21 -55
-32 -55 -14 0 5 -4 8 -10 4 -11 -7 6 -52 28 -75 12 -13 13 -11 7 18 -8 36 9
45 20 10 6 -20 8 -21 12 -5 3 10 10 16 16 14 24 -9 48 13 41 36 -6 19 -5 20
10 8 14 -11 16 -11 16 1 0 8 -7 23 -15 34 -12 15 -14 16 -15 3z m-20 -29 c0
-5 -5 -10 -11 -10 -5 0 -7 5 -4 10 3 6 8 10 11 10 2 0 4 -4 4 -10z m10 -30 c0
-5 -5 -10 -11 -10 -5 0 -7 5 -4 10 3 6 8 10 11 10 2 0 4 -4 4 -10z"/>
<path d="M9336 1945 c-3 -8 -11 -15 -18 -15 -7 -1 -23 -9 -36 -20 -19 -16 -21
-23 -12 -40 6 -11 15 -20 20 -20 14 0 12 14 -2 28 -16 16 4 16 21 0 11 -11 12
-8 6 12 -7 21 -6 23 7 12 15 -12 41 -8 65 10 9 8 9 14 0 29 -14 23 -43 25 -51
4z"/>
<path d="M9510 1942 c0 -9 38 -52 46 -52 2 0 -2 14 -11 30 -14 28 -35 41 -35
22z"/>
<path d="M10140 1922 c0 -17 32 -72 41 -72 11 0 11 6 0 28 -5 9 -12 25 -15 35
-5 17 -26 24 -26 9z"/>
<path d="M9470 1912 c0 -13 41 -64 47 -58 3 3 -6 19 -21 36 -14 17 -26 27 -26
22z"/>
<path d="M9510 1908 c0 -9 5 -20 10 -23 13 -8 13 5 0 25 -8 13 -10 13 -10 -2z"/>
<path d="M9896 1904 c-11 -28 -7 -36 14 -31 23 6 28 -8 6 -16 -8 -3 -20 1 -26
9 -16 18 -34 18 -50 -1 -9 -10 -9 -15 -1 -15 6 0 11 -7 11 -15 0 -20 -16 -19
-24 0 -4 13 -10 14 -26 5 -15 -8 -20 -8 -20 1 0 7 -3 10 -6 6 -8 -7 14 -75 27
-83 7 -4 8 7 4 30 -8 38 8 52 18 16 5 -21 27 -28 27 -9 0 5 5 7 10 4 6 -4 24
5 41 19 17 14 35 26 40 26 5 0 9 9 9 20 0 14 -7 20 -22 21 -13 0 -17 3 -10 6
16 6 15 23 -2 23 -8 0 -17 -7 -20 -16z m-16 -74 c0 -5 -5 -10 -11 -10 -5 0 -7
5 -4 10 3 6 8 10 11 10 2 0 4 -4 4 -10z"/>
<path d="M9224 1865 c-3 -8 -2 -20 2 -27 4 -7 -5 -2 -21 12 l-28 25 6 -23 c4
-19 2 -22 -14 -17 -23 8 -24 -7 -3 -40 17 -26 37 -25 27 0 -3 11 -1 13 10 9
13 -5 29 2 75 32 2 1 -3 11 -10 23 -15 24 -36 27 -44 6z"/>
<path d="M10333 1868 c-4 -7 -17 -18 -28 -24 -24 -14 -31 -40 -15 -59 17 -20
23 -19 52 8 20 18 24 30 20 55 -4 33 -15 41 -29 20z m-8 -56 c0 -18 -20 -15
-23 4 -3 10 1 15 10 12 7 -3 13 -10 13 -16z"/>
<path d="M9432 1853 c2 -9 8 -18 15 -20 7 -3 9 3 6 16 -6 25 -26 28 -21 4z"/>
<path d="M10074 1855 c-4 -10 -13 -13 -25 -10 -14 5 -19 1 -19 -12 1 -23 36
-70 46 -60 4 4 2 13 -4 19 -7 7 -12 19 -11 28 0 10 4 7 11 -7 22 -45 70 -13
50 32 -13 28 -40 33 -48 10z m36 -26 c0 -24 -23 -21 -28 4 -2 10 3 17 12 17
10 0 16 -9 16 -21z"/>
<path d="M10792 1845 c-12 -14 -22 -29 -22 -35 0 -5 -7 -7 -15 -4 -21 8 -19
-3 5 -28 11 -12 20 -28 20 -35 0 -8 5 -11 11 -8 6 4 8 22 4 46 -6 36 -5 39 17
39 18 0 20 -2 8 -10 -8 -5 -11 -12 -7 -17 11 -10 42 11 42 28 0 8 -10 14 -23
13 -16 0 -19 3 -12 10 5 5 10 14 10 18 0 15 -17 8 -38 -17z"/>
<path d="M9385 1826 c-9 -14 -14 -30 -11 -35 4 -5 2 -12 -3 -15 -13 -8 -21 20
-9 32 7 7 2 10 -16 9 -31 -2 -31 -5 -10 -37 16 -24 16 -24 -1 -8 -16 15 -20
15 -41 1 -13 -8 -24 -22 -24 -30 0 -8 -5 -11 -10 -8 -7 4 -8 -3 -4 -22 l7 -28
-22 19 c-16 14 -21 16 -21 5 0 -12 -2 -11 -10 1 -5 8 -12 11 -16 7 -4 -3 -1
-13 6 -22 14 -17 7 -19 -20 -5 -27 15 -33 -4 -10 -31 16 -19 19 -20 13 -5 -5
17 -3 18 22 12 21 -5 26 -4 22 6 -3 9 4 14 22 13 22 0 26 4 24 25 -1 14 1 19
3 13 3 -7 10 -13 16 -13 6 0 5 6 -2 15 -17 21 -5 31 16 14 15 -12 16 -11 9 11
-7 21 -6 23 6 13 19 -15 43 -12 67 10 10 9 24 17 30 17 17 0 15 11 -5 26 -17
13 -17 14 1 7 13 -4 17 -2 14 7 -8 24 -26 22 -43 -4z"/>
<path d="M10240 1825 c0 -8 9 -29 20 -47 22 -36 27 -20 9 31 -11 32 -29 42
-29 16z"/>
<path d="M10545 1810 c7 -33 -10 -42 -20 -11 -4 12 -12 18 -21 14 -7 -3 -14 0
-14 6 0 6 -4 11 -10 11 -17 0 -10 -44 11 -70 l20 -25 -6 35 -6 35 17 -29 c16
-28 16 -28 36 -9 14 14 17 27 13 46 -10 38 -28 34 -20 -3z"/>
<path d="M9100 1802 c0 -7 7 -25 16 -40 16 -26 16 -26 -8 2 l-25 30 -6 -26
c-4 -15 -4 -35 0 -45 6 -17 6 -17 -14 0 -12 10 -24 14 -27 9 -9 -14 29 -43 48
-36 19 7 20 18 5 47 -12 21 -11 22 8 4 18 -16 53 -15 53 2 0 13 -49 66 -50 53z"/>
<path d="M9720 1790 c0 -21 31 -71 40 -65 5 3 0 21 -11 40 -22 36 -29 42 -29
25z"/>
<path d="M10707 1789 c-12 -7 -16 -17 -12 -30 4 -10 2 -19 -3 -19 -5 0 -12 10
-16 23 -6 22 -6 21 -26 -8 -24 -36 -25 -49 -5 -69 13 -13 20 -13 35 -3 11 6
20 18 20 25 0 7 4 11 10 7 11 -7 50 16 50 30 0 5 -8 20 -18 32 -13 17 -21 20
-35 12z m-32 -77 c0 -18 -20 -15 -23 4 -3 10 1 15 10 12 7 -3 13 -10 13 -16z"/>
<path d="M9953 1766 c-14 -16 -19 -32 -16 -50 6 -31 -12 -35 -20 -5 -4 15 -11
20 -21 16 -9 -4 -16 -2 -16 3 0 6 -4 10 -10 10 -5 0 -7 -6 -4 -13 3 -8 -2 -20
-11 -27 -18 -15 -19 -31 -2 -54 12 -16 17 -17 36 -6 18 9 21 17 16 38 -6 26
-6 26 8 7 13 -16 17 -17 31 -6 9 7 16 23 17 35 0 11 3 15 6 9 6 -17 28 -16 42
1 14 17 -2 66 -22 66 -7 0 -23 -11 -34 -24z m47 -20 c0 -3 -4 -8 -10 -11 -5
-3 -10 -1 -10 4 0 6 5 11 10 11 6 0 10 -2 10 -4z m-115 -74 c0 -18 -20 -15
-23 4 -3 10 1 15 10 12 7 -3 13 -10 13 -16z"/>
<path d="M10163 1765 c3 -11 8 -28 12 -37 6 -14 2 -18 -16 -18 -19 0 -21 2 -9
10 8 5 11 12 7 16 -9 9 -37 -15 -37 -32 0 -8 11 -14 28 -15 16 -1 20 -3 10 -6
-10 -2 -18 -10 -18 -16 0 -7 -9 -1 -19 12 -27 35 -55 22 -46 -21 10 -44 11
-45 48 -23 49 28 85 67 79 85 -5 13 -3 13 10 2 11 -9 18 -10 23 -2 3 5 -1 13
-9 16 -9 3 -16 13 -16 22 0 12 -3 13 -12 4 -9 -9 -15 -7 -25 6 -13 16 -14 16
-10 -3z"/>
<path d="M9682 1758 c-16 -16 -15 -28 1 -24 6 1 9 1 5 -1 -5 -3 -8 -14 -8 -26
0 -20 -1 -20 -14 -2 -7 10 -25 19 -40 20 -21 0 -25 -3 -20 -17 4 -13 1 -16
-10 -12 -22 8 -21 -25 2 -53 15 -19 19 -20 35 -8 15 11 16 17 8 34 -14 26 -14
31 4 31 8 0 15 -7 15 -16 0 -11 5 -14 16 -10 9 3 19 6 22 6 4 0 15 7 25 14 17
13 17 16 2 45 -17 34 -25 37 -43 19z m38 -42 c0 -3 -4 -8 -10 -11 -5 -3 -10
-1 -10 4 0 6 5 11 10 11 6 0 10 -2 10 -4z m-96 -52 c10 -25 -1 -29 -14 -5 -6
12 -7 21 -1 21 5 0 12 -7 15 -16z"/>
<path d="M10425 1760 c-8 -13 4 -70 15 -70 4 0 7 18 7 40 -2 39 -10 50 -22 30z"/>
<path d="M317 1592 c-86 -86 -157 -162 -157 -167 0 -13 312 -325 325 -325 13
0 325 312 325 325 0 13 -312 325 -325 325 -6 0 -81 -71 -168 -158z"/>
<path d="M8989 1724 c-10 -13 -10 -20 2 -39 21 -35 31 -34 35 3 3 20 0 31 -6
27 -6 -3 -7 1 -4 9 8 21 -10 21 -27 0z"/>
<path d="M10394 1725 c3 -8 9 -22 12 -30 4 -10 0 -15 -10 -15 -9 0 -16 6 -16
14 0 8 -5 18 -11 22 -9 5 -10 -1 -5 -21 7 -26 6 -27 -10 -10 -17 17 -19 16
-35 -4 -9 -11 -22 -21 -28 -21 -6 0 -11 -10 -11 -21 0 -18 -2 -19 -15 -9 -23
19 -18 -4 5 -25 11 -10 20 -27 20 -37 0 -11 5 -16 10 -13 6 4 7 24 4 48 -5 35
-4 40 7 30 20 -19 50 -15 56 7 3 11 10 17 15 14 5 -3 18 2 28 11 15 14 17 22
8 46 -5 16 -14 29 -20 29 -6 0 -7 -7 -4 -15z m-48 -82 c-7 -17 -8 -17 -17 0
-12 21 -2 44 13 29 6 -6 8 -19 4 -29z"/>
<path d="M10573 1716 c3 -8 -1 -20 -9 -26 -8 -7 -14 -18 -14 -25 0 -8 -8 -11
-17 -9 -11 3 -23 -3 -31 -16 -14 -22 -4 -27 18 -7 12 10 12 9 0 -8 -8 -11 -15
-22 -17 -24 -1 -1 -8 1 -15 5 -21 14 -58 11 -58 -4 0 -7 7 -26 15 -43 13 -24
19 -28 34 -19 10 5 21 16 25 25 3 8 9 14 13 13 4 -1 19 4 32 11 17 9 20 16 12
24 -18 18 -12 28 9 15 16 -10 23 -10 36 3 14 15 14 20 -5 58 -20 39 -40 58
-28 27z m21 -67 c-10 -16 -24 -9 -24 12 0 18 2 19 15 9 8 -7 12 -16 9 -21z
m-54 -43 c0 -3 -4 -8 -10 -11 -5 -3 -10 -1 -10 4 0 6 5 11 10 11 6 0 10 -2 10
-4z m-60 -26 c0 -11 -4 -20 -10 -20 -5 0 -10 9 -10 20 0 11 5 20 10 20 6 0 10
-9 10 -20z"/>
<path d="M904 1668 c-2 -4 8 -13 22 -20 29 -14 27 -11 103 -233 94 -275 103
-295 117 -295 17 0 23 14 79 190 38 118 44 132 53 110 5 -14 31 -87 58 -162
27 -76 54 -138 60 -138 12 0 34 56 140 353 53 148 60 162 82 172 38 17 19 28
-51 29 -67 2 -108 -8 -77 -18 53 -16 52 -15 46 -50 -4 -18 -25 -82 -47 -142
-23 -60 -46 -126 -52 -146 -6 -21 -14 -38 -17 -38 -6 0 -107 284 -116 327 -5
23 -2 34 7 37 43 13 51 17 46 23 -13 12 -201 7 -205 -5 -2 -7 3 -12 11 -12 23
0 52 -42 67 -95 12 -43 11 -52 -25 -163 l-38 -117 -14 40 c-47 130 -103 299
-103 311 0 8 12 19 26 25 15 5 24 12 20 16 -8 9 -187 10 -192 1z"/>
<path d="M1835 1660 c-120 -57 -178 -177 -154 -315 46 -266 388 -307 500 -61
28 61 26 176 -5 241 -28 61 -77 112 -131 136 -55 25 -157 25 -210 -1z m175
-29 c57 -30 84 -95 88 -210 5 -122 -8 -174 -58 -223 -35 -36 -41 -38 -98 -38
-54 0 -65 4 -97 31 -40 36 -75 131 -75 208 0 62 25 156 52 193 40 56 124 74
188 39z"/>
<path d="M2244 1668 c-3 -4 3 -11 13 -14 50 -15 48 -6 48 -254 0 -249 3 -235
-50 -257 -24 -9 73 -16 163 -11 41 2 51 6 37 11 -50 21 -50 20 -53 131 l-3
106 25 0 c21 0 42 -23 118 -125 l92 -125 73 0 c73 0 97 14 46 26 -40 9 -57 27
-140 138 l-74 100 37 18 c21 10 45 25 56 34 23 22 39 78 31 116 -8 39 -67 96
-107 102 -59 10 -307 13 -312 4z m266 -43 c32 -17 60 -61 60 -95 0 -31 -27
-78 -53 -92 -12 -6 -43 -15 -69 -18 l-48 -6 0 107 c0 77 4 109 13 112 25 10
69 7 97 -8z"/>
<path d="M2955 1661 c-53 -24 -100 -72 -132 -135 -67 -132 -5 -322 125 -379
15 -6 48 -28 74 -49 99 -77 210 -124 274 -116 27 3 25 5 -22 21 -45 16 -91 53
-133 109 -11 15 -8 19 22 32 42 17 109 82 133 128 26 49 31 173 10 236 -20 60
-80 126 -139 153 -56 25 -158 25 -212 0z m190 -38 c54 -39 93 -171 80 -272
-10 -77 -31 -126 -71 -161 -31 -26 -42 -30 -96 -30 -58 0 -63 2 -97 38 -47 49
-61 98 -61 209 0 128 29 200 94 229 39 18 117 11 151 -13z"/>
<path d="M10010 1658 c0 -12 -5 -15 -16 -11 -13 5 -15 1 -10 -18 7 -24 7 -24
-10 -4 -16 20 -16 20 -9 -2 4 -14 2 -23 -4 -23 -6 0 -11 -7 -11 -15 0 -9 -6
-12 -15 -9 -9 4 -15 0 -15 -10 0 -10 -6 -13 -15 -10 -23 9 -18 -10 10 -36 25
-23 25 -23 25 -2 0 15 5 20 15 16 11 -5 15 2 16 27 0 31 1 32 9 12 11 -27 16
-28 36 -9 7 8 19 16 26 18 9 3 6 17 -10 49 -11 24 -21 36 -22 27z m19 -68 c0
-10 -3 -8 -9 5 -12 27 -12 43 0 25 5 -8 9 -22 9 -30z m-19 -6 c0 -8 -4 -12
-10 -9 -5 3 -10 10 -10 16 0 5 5 9 10 9 6 0 10 -7 10 -16z"/>
<path d="M9080 1645 c-10 -12 -9 -20 4 -41 19 -28 43 -29 60 -2 8 13 6 22 -8
37 -23 25 -39 26 -56 6z m45 -15 c4 -6 4 -18 1 -27 -5 -12 -9 -13 -21 -3 -8 7
-15 19 -15 26 0 16 26 19 35 4z"/>
<path d="M9761 1631 c-12 -16 -21 -33 -21 -38 0 -5 -13 -10 -29 -10 -33 0 -64
-20 -55 -35 4 -6 10 -5 15 3 5 8 9 10 9 4 -1 -5 -7 -18 -14 -28 -10 -13 -15
-14 -18 -5 -4 11 -68 22 -68 12 0 -12 35 -74 42 -74 10 0 10 11 -1 30 -17 25
1 33 20 9 10 -13 19 -19 19 -12 0 7 6 10 13 7 7 -2 21 4 31 15 14 15 15 24 7
40 -17 32 -13 36 12 13 24 -23 37 -20 37 8 0 11 9 16 28 15 22 0 28 5 30 27 2
18 -3 30 -17 37 -16 9 -23 6 -40 -18z m49 -25 c0 -3 -4 -8 -10 -11 -5 -3 -10
-1 -10 4 0 6 5 11 10 11 6 0 10 -2 10 -4z"/>
<path d="M9510 1631 c0 -5 -9 -11 -20 -14 -12 -3 -20 -14 -20 -26 0 -14 -5
-19 -15 -14 -13 5 -14 2 -4 -21 13 -28 17 -30 37 -17 9 5 11 17 6 34 -7 29 10
38 20 12 7 -19 30 -19 45 -1 9 11 10 20 1 35 -10 20 -50 30 -50 12z m30 -5 c0
-3 -4 -8 -10 -11 -5 -3 -10 -1 -10 4 0 6 5 11 10 11 6 0 10 -2 10 -4z m10 -30
c0 -3 -4 -8 -10 -11 -5 -3 -10 -1 -10 4 0 6 5 11 10 11 6 0 10 -2 10 -4z"/>
<path d="M9050 1615 c0 -5 9 -21 20 -35 11 -14 20 -20 20 -15 0 6 -9 21 -20
35 -11 14 -20 21 -20 15z"/>
<path d="M10182 1588 c-7 -7 -12 -18 -12 -25 0 -7 -7 -10 -15 -7 -28 11 -45
-14 -33 -47 5 -16 14 -29 20 -29 6 0 7 7 4 15 -3 8 -9 22 -12 30 -4 9 -1 15 9
15 8 0 17 -10 21 -22 5 -19 8 -21 16 -8 9 13 12 13 21 -3 8 -14 14 -16 25 -6
17 14 18 39 2 74 -12 27 -27 32 -46 13z m36 -32 c3 -12 -1 -17 -10 -14 -7 3
-15 13 -16 22 -3 12 1 17 10 14 7 -3 15 -13 16 -22z"/>
<path d="M10380 1565 c0 -8 -4 -15 -9 -15 -5 0 -13 -9 -16 -20 -4 -11 -11 -18
-16 -14 -6 3 -19 -2 -29 -11 -17 -16 -18 -20 -5 -38 25 -35 17 -44 -9 -12 -23
28 -26 29 -42 13 -10 -10 -14 -21 -10 -25 4 -4 11 -1 16 7 13 19 13 4 1 -19
-5 -9 -6 -23 -1 -30 6 -11 14 -8 39 10 28 20 30 27 25 58 l-5 36 20 -25 c15
-19 21 -21 21 -9 0 12 7 15 24 12 33 -7 41 12 26 58 -13 39 -30 52 -30 24z
m20 -51 c0 -16 -16 -19 -25 -4 -8 13 4 32 16 25 5 -4 9 -13 9 -21z"/>
<path d="M9400 1555 c-7 -8 -10 -19 -6 -22 4 -4 11 -1 16 7 6 8 10 10 10 4 0
-6 -7 -17 -16 -25 -13 -10 -17 -10 -24 2 -15 23 -45 -3 -43 -36 2 -26 1 -26
-11 -9 -12 15 -16 16 -30 5 -9 -7 -16 -22 -16 -33 0 -17 -3 -18 -15 -8 -12 10
-18 10 -30 0 -8 -7 -15 -19 -15 -27 0 -8 -5 -11 -11 -7 -8 4 -9 -1 -4 -17 8
-28 25 -49 25 -32 0 7 10 13 23 15 14 2 23 11 25 25 2 14 8 20 18 16 11 -4 13
2 8 26 -4 20 -3 31 5 31 6 0 11 -6 11 -14 0 -22 18 -29 34 -14 9 9 11 20 5 35
-5 13 -4 25 1 28 5 3 11 -4 15 -15 6 -20 25 -28 25 -10 0 5 6 7 13 5 6 -2 21
2 32 10 18 15 18 17 3 42 -20 34 -31 38 -48 18z m-130 -151 c0 -16 -16 -19
-25 -4 -8 13 4 32 16 25 5 -4 9 -13 9 -21z"/>
<path d="M9808 1529 c-35 -20 -13 -99 26 -99 17 0 46 33 46 51 0 20 -29 59
-43 59 -7 0 -20 -5 -29 -11z m46 -25 c8 -20 -12 -56 -27 -51 -14 4 -21 32 -13
53 7 19 32 18 40 -2z"/>
<path d="M10090 1514 c0 -3 5 -15 11 -27 9 -20 8 -20 -9 2 l-19 24 -37 -29
c-20 -16 -34 -34 -32 -40 3 -7 -3 -10 -14 -7 -11 3 -26 -3 -36 -16 -10 -11
-21 -18 -25 -15 -5 2 -16 -7 -25 -21 -9 -13 -20 -22 -25 -19 -14 9 -42 -25
-35 -43 6 -14 4 -14 -10 -2 -14 11 -19 10 -33 -8 -10 -11 -26 -22 -37 -25 -27
-5 -32 -63 -7 -72 12 -5 23 -1 34 12 8 11 24 21 34 23 11 2 22 15 26 29 4 14
7 19 8 12 1 -7 6 -10 11 -7 7 4 6 13 -1 27 -7 13 -7 24 -1 30 7 7 12 3 17 -11
6 -21 25 -29 25 -11 0 6 9 10 21 10 12 0 23 8 26 20 3 11 9 18 13 15 17 -11
40 8 40 34 0 21 2 23 11 11 8 -12 10 -10 8 10 -2 43 1 46 22 20 l20 -25 -6 40
-6 40 20 -25 c25 -31 47 -16 37 24 -5 22 -26 38 -26 20z m-95 -124 c-3 -5 -11
-10 -16 -10 -6 0 -7 5 -4 10 3 6 11 10 16 10 6 0 7 -4 4 -10z m-42 -6 c7 -7
-14 -44 -25 -44 -5 0 -8 11 -8 25 0 23 18 34 33 19z m-123 -100 c0 -8 -4 -14
-10 -14 -5 0 -10 9 -10 21 0 11 5 17 10 14 6 -3 10 -13 10 -21z m-40 -16 c0
-7 -5 -20 -10 -28 -9 -13 -11 -13 -20 0 -7 11 -5 19 7 28 9 6 18 12 20 12 2 0
3 -6 3 -12z"/>
<path d="M9731 1472 c-21 -16 -21 -19 -7 -54 19 -45 42 -63 32 -25 -7 29 9 46
27 28 23 -23 26 -9 6 29 -24 45 -28 47 -58 22z m28 -28 c-6 -7 -15 -11 -21 -8
-5 3 -4 12 3 20 6 7 15 11 21 8 5 -3 4 -12 -3 -20z"/>
<path d="M9544 1464 c4 -12 1 -14 -14 -9 -25 8 -25 0 0 -25 11 -11 20 -29 20
-41 0 -11 5 -17 10 -14 19 12 8 105 -12 105 -6 0 -7 -7 -4 -16z"/>
<path d="M10180 1437 c0 -28 -25 -62 -42 -59 -11 2 -22 -6 -29 -22 -7 -14 -16
-23 -21 -20 -5 3 -18 -2 -29 -12 -10 -9 -29 -22 -42 -28 -27 -14 -34 -48 -12
-66 8 -7 15 -19 15 -26 0 -19 14 -17 33 4 9 10 14 27 11 38 -4 17 -1 21 18 20
16 -1 24 5 26 20 2 16 8 20 22 17 12 -3 23 3 32 16 7 12 20 21 29 21 31 0 40
24 24 63 -16 39 -35 57 -35 34z m20 -71 c-8 -8 -13 -7 -20 4 -12 20 -1 33 16
19 11 -9 12 -15 4 -23z m-50 -32 c0 -16 -16 -19 -25 -4 -8 13 4 32 16 25 5 -4
9 -13 9 -21z m-60 -34 c0 -11 -4 -20 -10 -20 -5 0 -10 9 -10 20 0 11 5 20 10
20 6 0 10 -9 10 -20z m-56 -36 c4 -9 4 -19 2 -21 -8 -8 -26 8 -26 23 0 19 16
18 24 -2z"/>
<path d="M9469 1423 c-12 -15 -12 -16 4 -10 15 6 16 4 6 -14 -10 -19 -11 -20
-23 -3 -12 16 -15 15 -44 -6 -35 -26 -40 -46 -17 -76 15 -18 16 -17 10 14 -4
20 -3 32 4 32 6 0 11 -7 11 -15 0 -8 4 -15 10 -15 5 0 7 13 4 30 -8 37 1 38
20 3 11 -20 15 -23 16 -11 0 10 6 15 13 13 6 -2 20 2 30 9 14 11 16 19 7 40
-11 30 -31 34 -51 9z m41 -33 c0 -5 -5 -10 -11 -10 -5 0 -7 5 -4 10 3 6 8 10
11 10 2 0 4 -4 4 -10z"/>
<path d="M9652 1418 c-7 -7 -12 -18 -12 -25 0 -7 -7 -10 -16 -6 -14 5 -15 1
-9 -28 7 -33 7 -34 -12 -16 -28 24 -36 21 -31 -13 4 -28 4 -29 -14 -13 -29 26
-31 8 -3 -26 32 -37 49 -40 41 -7 -7 27 8 45 18 21 3 -8 10 -15 17 -15 7 0 9
14 4 43 -7 41 -6 41 10 20 37 -52 99 -11 75 48 -13 31 -46 39 -68 17z m53 -29
c8 -24 -16 -55 -34 -45 -6 4 -11 20 -11 37 0 22 5 29 19 29 11 0 23 -9 26 -21z"/>
<path d="M9167 1403 c-6 -12 22 -73 33 -73 13 0 13 1 -5 44 -16 37 -21 42 -28
29z"/>
<path d="M9124 1355 c-8 -20 3 -34 24 -30 9 1 11 0 5 -2 -15 -5 -18 -33 -4
-33 5 0 14 7 21 15 15 17 6 46 -12 41 -7 -1 -10 -1 -5 1 13 8 8 23 -8 23 -9 0
-18 -7 -21 -15z"/>
<path d="M9082 1328 c-7 -7 -12 -21 -13 -32 0 -12 -3 -15 -6 -8 -9 24 -22 1
-13 -23 12 -31 -2 -32 -23 -2 -12 16 -16 18 -16 6 -1 -8 5 -24 13 -35 12 -15
18 -17 33 -8 10 7 17 18 15 26 -2 11 5 14 23 10 30 -5 40 14 26 51 -12 30 -21
33 -39 15z"/>
<path d="M9303 1300 c-6 -23 -23 -27 -23 -5 0 8 -5 15 -11 15 -6 0 -8 -7 -5
-15 20 -51 20 -51 4 -37 -24 19 -53 3 -50 -29 1 -3 -9 -5 -21 -5 -11 1 -26 -8
-31 -19 -7 -12 -18 -19 -29 -17 -12 2 -20 -3 -24 -17 -3 -11 -14 -21 -25 -23
-34 -5 -41 -29 -22 -73 16 -34 19 -37 22 -17 2 12 8 22 13 22 5 0 9 9 9 21 0
15 4 19 16 15 18 -7 44 10 44 27 0 7 -4 7 -12 -1 -20 -20 -30 -14 -10 6 11 13
21 16 29 9 19 -14 43 0 44 25 l0 23 11 -22 c15 -31 22 -29 38 12 8 19 20 35
27 35 8 0 10 7 6 18 -6 14 -4 15 8 5 25 -20 52 5 44 40 -9 33 -44 37 -52 7z
m27 0 c0 -5 -5 -10 -11 -10 -5 0 -7 5 -4 10 3 6 8 10 11 10 2 0 4 -4 4 -10z
m10 -24 c0 -3 -4 -8 -10 -11 -5 -3 -10 -1 -10 4 0 6 5 11 10 11 6 0 10 -2 10
-4z m-77 -40 c6 -15 -1 -26 -15 -26 -4 0 -8 9 -8 20 0 23 15 27 23 6z m-55
-49 c2 -10 -3 -17 -12 -17 -10 0 -16 9 -16 21 0 24 23 21 28 -4z m-113 -77 c0
-7 -6 -15 -12 -17 -8 -3 -13 4 -13 17 0 13 5 20 13 18 6 -3 12 -11 12 -18z"/>
<path d="M9488 1295 c-8 -8 0 -31 20 -63 22 -34 25 -20 5 27 -10 23 -21 39
-25 36z"/>
<path d="M8966 1244 c-19 -19 -20 -25 -2 -49 8 -12 20 -16 34 -13 12 3 23 1
26 -6 3 -7 5 -7 5 2 1 20 -27 82 -38 82 -5 0 -17 -7 -25 -16z m34 -30 c0 -16
-16 -19 -25 -4 -8 13 4 32 16 25 5 -4 9 -13 9 -21z"/>
<path d="M9447 1243 c-12 -12 -7 -50 8 -63 20 -16 45 3 45 35 0 27 -36 46 -53
28z m33 -33 c0 -11 -4 -20 -10 -20 -5 0 -10 9 -10 20 0 11 5 20 10 20 6 0 10
-9 10 -20z"/>
<path d="M9937 1243 c-12 -11 -8 -40 7 -52 12 -10 14 -6 13 24 -1 34 -7 42
-20 28z"/>
<path d="M9667 1223 c-16 -16 -6 -43 16 -44 21 0 21 -1 2 -8 -14 -6 -24 -3
-33 10 -11 16 -16 17 -33 6 -12 -7 -18 -19 -15 -29 3 -14 1 -16 -14 -8 -15 8
-23 5 -38 -15 -11 -13 -22 -21 -26 -18 -9 9 -8 -2 4 -31 5 -14 15 -26 21 -26
6 0 9 6 6 13 -3 8 4 13 22 12 20 0 27 5 29 24 3 19 6 21 14 10 6 -10 8 -3 3
24 -6 39 9 52 20 17 7 -23 37 -20 64 5 18 18 6 49 -15 41 -14 -5 -15 -4 -4 9
10 12 10 15 -2 15 -8 0 -18 -3 -21 -7z m-77 -114 c0 -10 -4 -19 -9 -19 -12 0
-23 29 -15 41 8 14 24 0 24 -22z"/>
<path d="M9916 1193 c6 -33 -9 -46 -20 -18 -3 8 -10 15 -15 15 -6 0 -7 -8 -4
-17 6 -16 5 -17 -11 -3 -16 13 -20 12 -36 -8 -10 -12 -24 -22 -30 -22 -7 0
-10 -7 -6 -16 5 -12 1 -14 -15 -9 -18 6 -19 5 -10 -13 6 -12 16 -24 21 -27 6
-3 10 -15 10 -26 0 -11 5 -17 10 -14 6 3 10 25 10 48 0 27 3 37 9 29 13 -21
46 -10 49 16 3 17 7 21 16 13 9 -8 18 -7 32 3 18 14 18 15 1 48 l-17 33 6 -32z
m-48 -61 c2 -7 -3 -12 -12 -12 -9 0 -16 7 -16 16 0 17 22 14 28 -4z"/>
<path d="M9365 1198 c-7 -17 21 -68 36 -68 9 0 3 19 -18 59 -10 21 -13 22 -18
9z"/>
<path d="M8882 1188 c-17 -17 -15 -33 3 -18 9 8 15 9 15 2 0 -6 -4 -14 -10
-17 -17 -11 -11 -35 9 -35 33 0 45 25 26 54 -19 29 -26 31 -43 14z m38 -42 c0
-3 -4 -8 -10 -11 -5 -3 -10 -1 -10 4 0 6 5 11 10 11 6 0 10 -2 10 -4z"/>
<path d="M9277 1125 c-14 -20 -15 -28 -5 -49 6 -14 15 -26 20 -26 10 0 10 11
-1 30 -17 25 1 34 20 9 20 -27 36 -21 20 8 -5 10 -12 26 -15 36 -7 23 -18 21
-39 -8z"/>
<path d="M8797 1120 c-8 -11 -17 -17 -22 -12 -7 7 3 -49 10 -57 2 -1 16 1 32
6 37 12 45 53 11 54 -13 0 -17 3 -10 6 6 2 12 9 12 14 0 16 -18 10 -33 -11z
m33 -34 c0 -9 -30 -14 -35 -6 -4 6 3 10 14 10 12 0 21 -2 21 -4z"/>
<path d="M9490 1096 c0 -7 -9 -16 -20 -19 -12 -3 -20 -14 -20 -27 0 -18 4 -21
23 -17 21 6 21 5 3 -8 -17 -13 -21 -12 -33 5 -11 16 -18 18 -34 10 -10 -6 -19
-21 -19 -33 0 -18 -2 -19 -11 -7 -8 11 -9 7 -5 -17 6 -35 -9 -55 -17 -23 -3
11 -10 20 -17 20 -7 0 -9 -9 -5 -22 5 -20 4 -21 -5 -5 -15 24 -50 5 -50 -28 0
-28 9 -35 50 -40 28 -4 30 -2 24 21 -4 14 -2 24 2 23 19 -4 44 14 44 31 0 13
6 17 18 13 10 -2 24 3 31 11 8 9 20 16 27 16 8 0 19 9 26 20 7 11 18 20 24 20
8 0 6 11 -4 35 -16 36 -32 46 -32 21z m20 -36 c0 -5 -9 -8 -19 -7 -15 1 -17 4
-9 14 11 13 28 9 28 -7z m-70 -64 c0 -3 -4 -8 -10 -11 -5 -3 -10 -1 -10 4 0 6
5 11 10 11 6 0 10 -2 10 -4z m-120 -77 c0 -11 -4 -17 -10 -14 -5 3 -10 13 -10
21 0 8 5 14 10 14 6 0 10 -9 10 -21z"/>
<path d="M8982 1093 c24 -50 33 -63 43 -63 18 0 -16 69 -33 70 -8 0 -12 -3
-10 -7z"/>
<path d="M9217 1077 c-6 -16 3 -66 13 -72 4 -2 17 4 29 14 21 19 22 21 6 45
-19 28 -40 34 -48 13z"/>
<path d="M8724 1038 c15 -31 22 -38 24 -25 4 19 -23 67 -37 67 -5 0 1 -19 13
-42z"/>
<path d="M9685 1043 c8 -20 15 -37 15 -39 0 -2 4 -4 10 -4 5 0 7 14 4 33 -5
30 -5 31 10 13 19 -23 35 -13 20 12 -6 9 -25 18 -42 19 l-32 1 15 -35z"/>
<path d="M8939 1049 c-8 -12 -26 -22 -42 -22 -15 -1 -27 -3 -27 -5 0 -10 30
-72 35 -72 4 0 4 14 0 30 -7 34 10 42 20 10 7 -21 25 -28 25 -10 0 6 6 10 13
10 7 0 21 6 31 13 18 13 18 15 1 40 -21 32 -38 34 -56 6z m41 -34 c0 -5 -5 -3
-10 5 -5 8 -10 20 -10 25 0 6 5 3 10 -5 5 -8 10 -19 10 -25z m-30 5 c0 -5 -4
-10 -10 -10 -5 0 -10 5 -10 10 0 6 5 10 10 10 6 0 10 -4 10 -10z"/>
<path d="M9141 1056 c-9 -11 -9 -22 2 -49 16 -36 47 -67 33 -32 -4 11 0 25 10
36 9 9 14 26 12 36 -4 23 -41 29 -57 9z m39 -14 c0 -13 -12 -22 -22 -16 -10 6
-1 24 13 24 5 0 9 -4 9 -8z"/>
<path d="M8642 1048 c-17 -17 -15 -73 4 -89 25 -21 70 12 66 48 -6 49 -42 69
-70 41z m43 -43 c0 -43 -29 -40 -33 3 -3 28 0 33 15 30 13 -2 18 -12 18 -33z"/>
<path d="M9650 1050 c0 -19 30 -70 41 -70 6 0 9 3 7 8 -3 4 -11 22 -18 40 -14
31 -30 43 -30 22z"/>
<path d="M9608 1001 c-15 -21 -46 -30 -65 -18 -18 11 -16 -6 4 -48 19 -39 41
-43 58 -10 5 11 18 19 27 17 24 -5 42 32 28 58 -13 25 -35 26 -52 1z m37 -19
c0 -18 -20 -15 -23 4 -3 10 1 15 10 12 7 -3 13 -10 13 -16z m-55 -43 c0 -10
-4 -19 -10 -19 -5 0 -10 12 -10 26 0 14 4 23 10 19 6 -3 10 -15 10 -26z"/>
<path d="M8566 995 c-17 -13 -17 -17 -4 -52 16 -40 45 -62 34 -25 -8 24 11 39
27 23 23 -23 26 -9 6 29 -23 43 -33 47 -63 25z m44 -15 c0 -12 -28 -25 -36
-17 -9 9 6 27 22 27 8 0 14 -5 14 -10z"/>
<path d="M8846 1001 c-8 -12 26 -71 40 -71 7 0 4 15 -8 40 -21 43 -24 45 -32
31z"/>
<path d="M11911 993 c-14 -15 -14 -33 -1 -33 6 0 10 5 10 12 0 6 9 3 21 -8 20
-18 20 -18 13 10 -5 21 -4 27 5 22 6 -4 11 -3 11 2 0 14 -45 10 -59 -5z"/>
<path d="M9048 956 c-10 -7 -18 -20 -18 -29 0 -10 -6 -13 -19 -10 -13 3 -24
-2 -33 -16 -7 -12 -23 -21 -35 -21 -27 0 -28 -10 -7 -51 12 -25 18 -28 30 -18
8 6 14 18 14 26 0 10 6 12 20 8 15 -5 23 0 31 19 7 14 16 23 22 19 5 -3 6 7 2
26 -7 32 8 44 19 16 3 -8 10 -15 16 -15 6 0 4 12 -5 30 -18 34 -15 33 -37 16z
m-28 -70 c0 -8 -4 -18 -10 -21 -5 -3 -10 -4 -10 -1 0 2 -3 11 -6 20 -4 11 -1
16 10 16 9 0 16 -6 16 -14z m-50 -60 c0 -6 -7 -2 -15 8 -8 11 -15 25 -15 30 0
6 7 2 15 -8 8 -11 15 -25 15 -30z"/>
<path d="M8492 935 c-11 -14 -25 -25 -32 -25 -8 0 -10 -9 -6 -25 6 -24 -7 -35
-19 -15 -14 23 -27 9 -21 -22 l6 -32 -25 24 c-33 31 -32 10 1 -29 34 -40 47
-40 39 2 -7 31 -7 32 12 15 30 -27 36 -22 29 23 l-7 41 24 -28 24 -28 27 27
c23 23 25 30 15 54 -18 48 -39 54 -67 18z m48 -14 c13 -26 3 -51 -21 -51 -14
0 -19 7 -19 28 0 45 21 57 40 23z"/>
<path d="M11871 943 c-6 -10 -11 -14 -11 -10 0 5 -7 1 -16 -8 -15 -15 -15 -17
2 -30 16 -12 19 -12 22 0 2 8 10 11 19 8 12 -5 14 -1 8 18 -7 21 -6 22 9 10
11 -9 16 -10 16 -2 0 7 5 9 10 6 6 -3 10 -2 10 4 0 5 -4 13 -10 16 -5 3 -10 1
-10 -6 0 -10 -3 -10 -12 -1 -16 16 -25 15 -37 -5z"/>
<path d="M8782 938 c-7 -7 -12 -19 -12 -27 0 -12 -3 -12 -12 -3 -9 9 -16 8
-29 -4 -14 -13 -15 -21 -7 -45 5 -16 14 -29 20 -29 6 0 7 7 4 15 -3 8 -9 22
-12 30 -4 10 0 15 10 15 9 0 16 -6 16 -14 0 -8 5 -18 12 -22 8 -5 9 0 5 17
l-6 24 19 -24 c37 -44 65 -5 38 54 -12 27 -27 32 -46 13z m31 -22 c6 -15 -1
-26 -15 -26 -4 0 -8 9 -8 20 0 23 15 27 23 6z"/>
<path d="M9225 906 c4 -39 36 -89 34 -56 0 8 -9 33 -20 55 l-19 40 5 -39z"/>
<path d="M9476 914 c-9 -8 -16 -20 -16 -25 0 -5 -8 -9 -18 -9 -31 0 -41 -18
-29 -51 6 -16 15 -29 20 -29 5 0 6 7 3 15 -3 8 -9 22 -12 30 -4 9 -1 15 9 15
8 0 18 -10 22 -22 6 -19 8 -20 12 -6 2 10 10 15 19 11 7 -3 11 -9 8 -14 -3 -5
2 -9 11 -9 23 0 29 26 16 71 -13 43 -21 47 -45 23z m29 -32 c0 -18 -20 -15
-23 4 -3 10 1 15 10 12 7 -3 13 -10 13 -16z"/>
<path d="M11775 879 c-4 -5 -18 -15 -32 -20 -21 -8 -24 -14 -18 -37 6 -25 5
-26 -8 -8 -15 20 -37 14 -37 -10 0 -8 -4 -13 -9 -10 -5 3 -14 -1 -21 -9 -10
-12 -16 -13 -26 -4 -21 17 -17 -5 4 -31 21 -26 46 -19 37 11 -7 22 5 25 24 7
11 -11 12 -9 7 9 -8 24 11 42 20 19 5 -14 8 -14 21 0 12 12 13 18 3 29 -10 12
-9 15 4 15 9 0 16 -3 16 -7 0 -10 56 -10 66 -1 8 9 -22 58 -36 58 -5 0 -12 -5
-15 -11z m25 -25 c0 -8 -4 -14 -9 -14 -11 0 -22 26 -14 34 9 9 23 -3 23 -20z
m-140 -104 c0 -5 -2 -10 -4 -10 -3 0 -8 5 -11 10 -3 6 -1 10 4 10 6 0 11 -4
11 -10z"/>
<path d="M8693 863 c2 -10 8 -27 12 -38 3 -11 -1 -8 -10 8 -18 30 -23 32 -48
13 -11 -9 -15 -20 -10 -32 6 -17 5 -17 -10 -5 -21 17 -47 -1 -47 -33 0 -18 -2
-19 -11 -6 -8 11 -9 8 -4 -15 8 -35 16 -45 22 -27 3 6 13 12 23 12 10 0 25 9
33 20 8 11 17 17 21 12 4 -4 5 11 1 32 -6 28 -5 37 4 32 6 -4 11 -14 11 -22 0
-16 26 -19 35 -4 9 15 -4 70 -17 70 -6 0 -8 -8 -5 -17z m-63 -95 c0 -5 -7 -8
-15 -8 -15 0 -20 21 -8 33 7 7 23 -11 23 -25z"/>
<path d="M9177 873 c-13 -12 -7 -50 9 -63 22 -19 49 9 40 44 -6 25 -33 35 -49
19z m43 -34 c0 -5 -7 -9 -15 -9 -9 0 -15 9 -15 21 0 18 2 19 15 9 8 -7 15 -16
15 -21z"/>
<path d="M8882 838 c-11 -13 -5 -65 8 -73 4 -2 16 3 28 11 21 14 21 17 7 45
-17 32 -27 36 -43 17z m18 -18 c0 -5 -5 -10 -11 -10 -5 0 -7 5 -4 10 3 6 8 10
11 10 2 0 4 -4 4 -10z"/>
<path d="M9365 837 c-11 -9 -16 -20 -12 -31 5 -13 2 -15 -19 -10 -20 5 -26 2
-31 -15 -6 -24 -23 -29 -23 -6 0 25 -14 17 -29 -17 -8 -18 -19 -36 -24 -39
-11 -8 0 -49 14 -49 5 0 9 4 9 10 0 5 6 7 14 4 7 -3 23 6 33 20 11 14 23 23
26 19 12 -11 38 20 33 39 -4 16 -2 17 11 6 14 -11 15 -9 9 20 -9 38 -2 40 25
10 l20 -23 -7 25 c-10 41 -27 53 -49 37z m-25 -87 c0 -5 -5 -10 -11 -10 -5 0
-7 5 -4 10 3 6 8 10 11 10 2 0 4 -4 4 -10z m-60 -31 c0 -11 -4 -17 -10 -14 -5
3 -10 13 -10 21 0 8 5 14 10 14 6 0 10 -9 10 -21z"/>
<path d="M8361 808 c-1 -37 8 -57 32 -70 21 -11 21 -11 3 17 -10 16 -22 40
-26 54 l-8 26 -1 -27z"/>
<path d="M9103 823 c-23 -9 -15 -43 10 -43 17 0 19 -2 7 -10 -18 -11 -7 -25
15 -17 16 7 21 47 5 47 -5 0 -10 7 -10 15 0 15 -6 17 -27 8z"/>
<path d="M8830 808 c1 -7 12 -26 25 -43 18 -22 25 -25 25 -13 0 9 -4 20 -10
23 -5 3 -10 15 -10 26 0 10 -7 19 -15 19 -8 0 -15 -6 -15 -12z"/>
<path d="M8780 795 c0 -3 5 -16 11 -27 10 -18 9 -20 -6 -14 -12 4 -16 2 -12
-7 3 -9 -6 -12 -34 -10 l-39 2 15 -29 c19 -36 19 -50 1 -25 -13 18 -46 16 -46
-4 0 -6 7 -8 16 -4 14 5 13 3 -2 -15 -15 -18 -20 -19 -26 -8 -7 12 -33 15 -66
7 -1 -1 2 -10 8 -21 9 -17 8 -20 -7 -20 -10 -1 -31 -11 -46 -24 -23 -18 -27
-28 -22 -49 10 -38 26 -33 19 6 l-6 32 19 -23 c20 -24 47 -22 57 4 7 17 -6 18
-22 2 -7 -7 -12 -9 -12 -5 0 4 8 15 18 25 17 17 20 17 30 3 9 -13 10 -9 5 17
-6 35 3 41 23 15 7 -10 14 -13 14 -6 0 6 9 9 19 6 13 -3 24 2 33 16 7 12 18
21 25 21 7 0 18 9 25 20 7 11 18 20 25 20 7 0 13 4 13 9 0 5 9 13 20 16 16 5
19 12 14 28 -12 40 -27 45 -20 7 l6 -35 -13 34 c-12 30 -37 55 -37 36z m-15
-93 c0 -18 -20 -15 -23 4 -3 10 1 15 10 12 7 -3 13 -10 13 -16z m-55 -52 c0
-5 -5 -10 -11 -10 -5 0 -7 5 -4 10 3 6 8 10 11 10 2 0 4 -4 4 -10z"/>
<path d="M9038 772 c-7 -11 -23 -22 -35 -26 -13 -4 -23 -15 -23 -26 0 -13 -5
-17 -15 -14 -22 9 -47 -15 -39 -38 5 -17 4 -18 -15 -6 -18 11 -23 11 -31 -2
-15 -24 -12 -30 18 -31 16 -1 20 -3 10 -6 -10 -2 -18 -11 -18 -19 0 -21 16
-17 38 11 11 13 23 21 26 17 9 -9 36 26 32 41 -2 7 -1 9 1 5 12 -21 24 -5 18
22 -8 35 7 40 23 8 9 -20 11 -20 11 -4 1 12 6 16 17 12 26 -10 43 11 35 42 -9
33 -34 40 -53 14z m42 -32 c0 -5 -5 -10 -11 -10 -5 0 -7 5 -4 10 3 6 8 10 11
10 2 0 4 -4 4 -10z m-110 -80 c0 -5 -4 -10 -10 -10 -5 0 -10 5 -10 10 0 6 5
10 10 10 6 0 10 -4 10 -10z"/>
<path d="M8520 765 c0 -8 -9 -19 -20 -25 -11 -6 -20 -17 -20 -25 0 -8 -6 -12
-12 -10 -7 2 -21 -2 -31 -9 -14 -11 -15 -19 -8 -39 17 -43 33 -44 25 -2 -5 27
-4 36 5 31 6 -4 11 -14 11 -22 0 -8 5 -14 11 -14 6 0 9 7 5 15 -4 13 -2 14 14
5 16 -8 22 -6 32 10 7 11 19 20 26 20 10 0 12 6 7 18 -4 9 -9 25 -12 34 -6 21
-33 32 -33 13z m20 -49 c0 -20 -26 -40 -35 -26 -10 16 2 40 20 40 8 0 15 -6
15 -14z"/>
<path d="M8265 745 c-19 -16 -29 -33 -28 -47 1 -15 0 -17 -3 -5 -3 9 -10 17
-15 17 -12 0 -11 -7 2 -33 16 -31 16 -31 32 -15 9 9 13 26 10 44 l-5 29 20
-24 c27 -33 53 -22 49 21 -3 41 -23 45 -62 13z m55 -25 c0 -5 -4 -10 -10 -10
-5 0 -10 5 -10 10 0 6 5 10 10 10 6 0 10 -4 10 -10z"/>
<path d="M11560 720 c0 -12 -6 -20 -12 -19 -31 4 -40 -2 -35 -22 4 -14 2 -18
-6 -11 -21 16 -46 9 -52 -15 -4 -18 -12 -23 -35 -23 -35 0 -37 -6 -12 -33 16
-19 16 -20 -6 -8 -24 13 -42 7 -42 -12 0 -8 3 -8 9 1 7 11 9 10 14 -3 4 -9 3
-13 -3 -10 -6 3 -10 1 -10 -6 0 -8 -4 -8 -13 -1 -13 11 -57 12 -57 2 0 -3 6
-12 12 -18 10 -10 7 -12 -12 -10 -21 3 -25 -1 -25 -24 -1 -33 -19 -56 -30 -38
-4 7 -1 16 6 21 11 7 11 9 -2 9 -23 0 -30 -10 -18 -31 11 -22 35 -25 46 -6 4
8 16 16 26 20 9 3 17 14 17 22 0 9 5 13 11 9 8 -4 9 0 4 15 -6 21 8 30 20 11
3 -5 13 -6 23 -3 28 11 82 57 82 71 0 7 5 10 11 6 7 -4 6 2 -1 17 l-13 24 22
-19 c21 -19 22 -19 42 3 17 18 18 25 9 36 -15 18 -6 19 22 4 16 -9 19 -8 12 3
-6 11 -5 11 9 -1 25 -20 47 -7 44 27 -2 23 -7 28 -29 30 -22 2 -28 -2 -28 -18z
m30 -11 c0 -5 -4 -9 -10 -9 -5 0 -10 7 -10 16 0 8 5 12 10 9 6 -3 10 -10 10
-16z m-80 -71 c0 -6 -7 -5 -15 2 -8 7 -15 17 -15 22 0 6 7 5 15 -2 8 -7 15
-17 15 -22z m-69 -31 c-1 -12 -15 -9 -19 4 -3 6 1 10 8 8 6 -3 11 -8 11 -12z
m-131 -103 c0 -9 -5 -14 -12 -12 -18 6 -21 28 -4 28 9 0 16 -7 16 -16z"/>
<path d="M9177 703 c-16 -15 -6 -43 16 -44 16 -1 18 -2 5 -6 -10 -2 -18 -10
-19 -16 0 -7 -4 -2 -9 11 -5 12 -16 22 -23 22 -19 0 -38 -24 -34 -41 2 -8 2
-11 0 -6 -9 14 -43 7 -53 -13 -6 -11 -14 -19 -18 -19 -24 4 -32 -4 -32 -31 0
-36 23 -49 48 -28 9 8 25 18 35 22 11 3 21 15 24 26 3 11 10 17 15 14 6 -4 8
5 3 25 -7 33 7 43 23 15 8 -15 13 -15 38 -3 36 17 37 41 4 50 -17 5 -19 7 -7
8 10 1 15 6 12 11 -7 12 -19 13 -28 3z m-79 -110 c-4 -22 -22 -20 -26 1 -2 10
3 16 13 16 10 0 15 -7 13 -17z m-38 -20 c0 -5 -5 -15 -10 -23 -7 -11 -12 -12
-21 -3 -6 6 -8 16 -5 22 8 12 36 15 36 4z"/>
<path d="M8166 674 c-9 -24 -7 -28 8 -14 13 10 13 8 3 -14 -9 -19 -14 -22 -20
-10 -10 18 -31 18 -46 0 -10 -12 -9 -21 4 -43 l16 -28 -5 33 c-6 37 8 42 25
10 8 -14 14 -18 17 -10 2 6 9 12 15 12 7 0 20 7 30 14 15 12 16 18 6 40 -14
29 -44 35 -53 10z m44 -28 c0 -3 -4 -8 -10 -11 -5 -3 -10 -1 -10 4 0 6 5 11
10 11 6 0 10 -2 10 -4z"/>
<path d="M8400 666 c0 -3 4 -16 10 -30 7 -20 6 -26 -5 -26 -7 0 -17 9 -20 21
-10 29 -17 17 -9 -15 6 -27 31 -35 51 -15 12 12 -4 69 -19 69 -4 0 -8 -2 -8
-4z"/>
<path d="M8330 640 c0 -15 32 -70 41 -70 11 0 -18 74 -30 78 -6 2 -11 -2 -11
-8z"/>
<path d="M197 613 c-4 -3 -7 -19 -7 -35 l0 -28 1736 0 1735 0 -3 33 -3 32
-1726 3 c-949 1 -1729 -1 -1732 -5z"/>
<path d="M7663 609 c4 -12 1 -15 -13 -12 -10 3 -21 -1 -25 -8 -5 -8 -4 -10 3
-5 8 5 8 -2 1 -24 -12 -33 -24 -42 -14 -10 4 14 2 20 -9 20 -23 0 -30 -20 -12
-38 14 -15 17 -14 33 1 10 10 28 26 40 36 21 16 21 19 7 37 -12 15 -15 15 -11
3z"/>
<path d="M8058 603 c-8 -10 -14 -23 -11 -29 2 -6 -6 -10 -19 -10 -14 1 -27 -8
-34 -23 l-12 -23 -7 22 c-4 12 -9 20 -11 18 -6 -7 19 -78 28 -78 4 0 8 4 8 9
0 5 9 7 20 4 14 -4 23 2 31 21 7 14 16 23 20 20 5 -3 6 9 3 26 -7 35 10 42 21
8 6 -21 8 -21 12 -4 3 10 -3 27 -14 38 -18 18 -20 18 -35 1z m-23 -71 c0 -18
-20 -15 -23 4 -3 10 1 15 10 12 7 -3 13 -10 13 -16z"/>
<path d="M8802 607 c-12 -15 -2 -69 14 -74 5 -1 18 4 29 13 18 13 19 17 5 41
-18 32 -33 38 -48 20z"/>
<path d="M8272 578 c-7 -7 -12 -18 -12 -25 0 -7 -7 -10 -15 -7 -18 7 -19 3 -3
-31 14 -31 31 -33 24 -2 -3 12 -3 16 0 10 11 -25 23 -12 18 20 l-6 32 21 -25
c22 -26 28 -13 11 21 -12 22 -21 24 -38 7z"/>
<path d="M11919 564 c0 -11 -3 -13 -6 -6 -2 6 -11 12 -20 12 -8 0 -13 -6 -10
-12 2 -7 -3 -18 -11 -24 -12 -9 -12 -14 -1 -32 19 -30 44 -30 29 -1 -15 27 -4
38 14 13 14 -18 15 -18 21 -2 4 10 11 15 16 12 15 -9 10 7 -11 33 -17 22 -20
23 -21 7z"/>
<path d="M8460 561 c0 -22 23 -81 32 -81 12 0 10 13 -12 56 -10 21 -19 33 -20
25z"/>
<path d="M8745 533 c7 -36 -9 -46 -20 -13 -4 11 -11 18 -16 14 -5 -3 -6 -10
-3 -16 5 -8 1 -9 -11 -4 -23 8 -65 -29 -65 -58 0 -15 -3 -17 -12 -8 -22 22
-32 12 -10 -11 12 -13 22 -31 22 -40 0 -9 5 -17 10 -17 6 0 10 19 10 41 0 36
2 40 15 29 22 -18 45 -5 45 27 0 19 3 24 9 15 12 -20 45 -10 49 13 1 11 -4 29
-13 40 -15 19 -16 19 -10 -12z m-52 -47 c6 -15 -1 -26 -15 -26 -4 0 -8 9 -8
20 0 23 15 27 23 6z"/>
<path d="M7540 521 c14 -11 27 -15 29 -10 4 13 2 15 -29 23 l-25 7 25 -20z"/>
<path d="M10730 526 c-6 -8 -18 -12 -27 -9 -13 5 -12 1 3 -23 16 -25 17 -27 1
-15 -18 14 -47 9 -47 -9 0 -6 4 -9 9 -6 5 3 14 -1 21 -9 11 -13 10 -15 -6 -12
-11 1 -24 6 -31 10 -12 8 -63 -19 -63 -32 0 -4 7 -16 15 -27 14 -18 15 -17 9
11 -5 29 -5 29 12 10 16 -20 16 -20 11 3 -6 24 3 28 21 10 9 -9 12 -9 12 0 0
6 6 9 14 6 8 -3 25 6 37 20 13 14 28 26 35 26 7 0 16 4 19 10 3 6 -1 7 -9 4
-9 -3 -16 -2 -16 4 0 6 5 12 12 14 12 4 3 28 -11 28 -5 0 -14 -6 -21 -14z"/>
<path d="M7930 518 c1 -7 12 -26 26 -43 18 -21 24 -24 19 -10 -4 11 -10 30
-12 43 -6 23 -33 31 -33 10z"/>
<path d="M8884 505 c5 -20 3 -25 -13 -25 -11 0 -25 -9 -31 -20 -6 -11 -17 -20
-25 -20 -8 0 -20 -9 -28 -20 -8 -11 -17 -17 -20 -13 -4 3 -7 -2 -7 -11 0 -12
-5 -16 -15 -12 -8 3 -18 -2 -23 -10 -5 -9 -12 -15 -15 -15 -4 1 -9 1 -13 1 -3
0 7 -15 21 -34 l26 -35 -21 -11 c-26 -14 -47 0 -52 33 -4 29 -38 36 -38 8 0
-12 4 -21 8 -21 5 0 14 -12 21 -27 9 -20 9 -29 0 -37 -9 -8 -10 -7 -6 6 8 22
-28 62 -48 54 -16 -6 -21 -46 -6 -46 16 0 19 -39 5 -51 -12 -10 -13 -9 -8 5 3
9 -1 27 -10 41 -14 21 -20 24 -37 14 -16 -8 -19 -17 -15 -37 3 -15 3 -21 0
-14 -8 16 -39 15 -53 -2 -10 -11 -9 -24 0 -55 7 -23 16 -41 22 -41 5 0 37 19
71 43 315 222 436 309 436 315 0 4 -9 13 -19 19 -17 11 -20 9 -23 -10 -3 -20
-5 -19 -18 11 -15 33 -30 42 -30 20 -1 -8 -6 -6 -14 5 -19 25 -29 21 -22 -8z
m66 -52 c0 -5 -11 -16 -24 -25 -23 -17 -24 -16 -29 3 -4 16 -2 19 14 14 11 -4
19 -2 19 4 0 6 5 11 10 11 6 0 10 -3 10 -7z m-70 -58 c0 -2 -9 -9 -20 -15 -16
-9 -18 -8 -14 5 5 13 34 22 34 10z m-72 -34 c11 -6 7 -13 -16 -30 -35 -25 -42
-26 -42 -7 0 8 8 13 18 12 11 -1 16 5 14 17 -3 19 6 21 26 8z m-288 -182 c0
-5 -4 -9 -10 -9 -5 0 -10 7 -10 16 0 8 5 12 10 9 6 -3 10 -10 10 -16z m40 -9
c0 -5 -4 -10 -10 -10 -5 0 -10 5 -10 10 0 6 5 10 10 10 6 0 10 -4 10 -10z"/>
<path d="M8170 505 c-16 -19 -5 -49 15 -41 8 3 15 1 15 -4 0 -6 -7 -10 -16
-10 -8 0 -12 -5 -9 -10 10 -16 47 9 43 28 -2 11 -12 16 -28 15 -15 -1 -18 0
-7 3 18 6 23 19 8 28 -5 3 -14 -1 -21 -9z"/>
<path d="M8416 504 c-4 -12 -2 -15 9 -10 12 4 13 2 3 -14 -8 -12 -15 -15 -19
-9 -3 6 -15 9 -25 7 -15 -3 -19 -12 -17 -38 1 -27 -1 -31 -8 -17 -13 22 -48
22 -56 0 -4 -10 -11 -21 -16 -24 -11 -8 0 -49 14 -49 5 0 9 4 9 10 0 5 6 7 13
4 19 -7 62 47 58 74 -3 26 7 28 25 5 8 -11 13 -13 14 -6 0 7 7 10 15 7 8 -3
21 1 30 9 12 13 13 21 3 41 -13 29 -43 35 -52 10z m44 -34 c0 -5 -4 -10 -10
-10 -5 0 -10 5 -10 10 0 6 5 10 10 10 6 0 10 -4 10 -10z m-120 -71 c0 -11 -4
-17 -10 -14 -5 3 -10 13 -10 21 0 8 5 14 10 14 6 0 10 -9 10 -21z"/>
<path d="M11813 494 c-8 -22 9 -49 33 -49 30 0 27 59 -4 63 -14 2 -25 -3 -29
-14z m37 -20 c0 -8 -4 -12 -10 -9 -5 3 -10 10 -10 16 0 5 5 9 10 9 6 0 10 -7
10 -16z"/>
<path d="M7902 488 c-19 -19 -14 -38 10 -38 21 0 21 0 2 -15 -18 -15 -18 -15
6 -13 35 4 42 48 8 49 -13 0 -17 3 -10 6 13 5 17 23 4 23 -4 0 -13 -5 -20 -12z"/>
<path d="M8120 472 c0 -5 -11 -15 -25 -22 -30 -16 -31 -30 -5 -61 22 -27 25
-22 10 15 -11 30 3 36 20 9 9 -15 10 -13 5 10 -6 30 9 37 24 10 14 -26 23 -10
12 21 -10 24 -41 38 -41 18z"/>
<path d="M11142 460 c-25 -21 -24 -48 3 -70 10 -9 20 -7 39 5 31 20 32 32 7
63 -23 26 -20 26 -49 2z m44 -17 c23 -33 -20 -59 -46 -28 -10 12 -10 18 0 30
16 20 30 19 46 -2z"/>
<path d="M11780 466 c0 -9 -6 -15 -12 -13 -7 1 -12 -3 -11 -10 2 -7 -4 -10
-12 -7 -23 9 -18 -13 7 -30 20 -14 23 -14 31 -1 4 9 12 13 18 10 15 -10 10 42
-6 55 -12 10 -15 10 -15 -4z"/>
<path d="M7842 443 c-5 -10 -7 -25 -5 -33 3 -9 -1 -7 -11 5 -16 19 -16 18 -10
-20 l5 -40 -20 25 c-18 22 -21 23 -21 6 0 -19 -1 -19 -13 -2 -17 24 -54 13
-69 -19 -13 -29 12 -75 41 -75 24 0 47 28 43 52 -3 17 -1 18 17 6 18 -11 23
-10 35 7 8 11 12 24 9 28 -3 5 3 6 14 3 29 -9 46 15 33 48 -11 30 -35 34 -48
9z m38 -33 c0 -5 -5 -10 -11 -10 -5 0 -7 5 -4 10 3 6 8 10 11 10 2 0 4 -4 4
-10z m-121 -44 c13 -15 -1 -56 -18 -56 -17 0 -32 30 -26 50 7 23 27 26 44 6z"/>
<path d="M8512 415 c3 -11 9 -29 13 -40 6 -20 6 -20 -9 -1 -13 16 -18 17 -31
6 -22 -18 -18 -40 8 -40 21 -1 21 -1 3 -12 -15 -8 -21 -7 -28 6 -10 17 -33 21
-42 7 -9 -15 5 -71 18 -71 7 0 22 9 34 20 12 11 25 20 29 20 14 0 43 39 43 56
0 13 3 14 14 5 10 -8 16 -9 21 -1 3 5 -1 13 -9 16 -9 3 -16 13 -16 21 0 8 -5
11 -10 8 -6 -4 -18 -1 -27 7 -14 11 -16 10 -11 -7z m-62 -89 c0 -3 -4 -8 -10
-11 -5 -3 -10 -1 -10 4 0 6 5 11 10 11 6 0 10 -2 10 -4z"/>
<path d="M8032 408 c-7 -7 -12 -21 -13 -32 0 -20 -1 -20 -11 2 -14 27 -32 29
-23 2 6 -20 -5 -25 -48 -22 -14 2 -16 -2 -7 -17 14 -26 13 -31 -4 -25 -22 8
-78 -37 -73 -58 4 -14 1 -16 -12 -9 -11 6 -23 4 -35 -5 -19 -13 -19 -15 -1
-55 17 -37 20 -39 27 -20 4 12 12 21 18 21 5 0 10 7 10 16 0 8 5 12 11 9 7 -5
8 5 4 32 l-6 38 19 -24 c22 -27 51 -23 59 8 3 11 10 18 17 15 15 -6 64 38 59
53 -2 6 6 9 21 6 31 -6 41 13 27 50 -12 30 -21 33 -39 15z m30 -50 c-7 -7 -12
-8 -12 -2 0 14 12 26 19 19 2 -3 -1 -11 -7 -17z m-77 -36 c0 -18 -20 -15 -23
4 -3 10 1 15 10 12 7 -3 13 -10 13 -16z m-55 -48 c0 -16 -16 -19 -25 -4 -8 13
4 32 16 25 5 -4 9 -13 9 -21z m-90 -60 c0 -16 -16 -19 -25 -4 -8 13 4 32 16
25 5 -4 9 -13 9 -21z"/>
<path d="M11670 405 c0 -8 8 -24 17 -35 18 -21 43 -27 43 -10 0 6 -4 10 -9 10
-5 0 -12 9 -16 19 -7 24 -35 36 -35 16z"/>
<path d="M10510 393 c-14 -9 -27 -18 -28 -19 -2 -1 6 -16 18 -32 22 -29 23
-30 51 -13 34 19 35 23 13 56 -19 30 -22 30 -54 8z m48 -29 c2 -13 -4 -24 -14
-28 -31 -12 -62 35 -31 47 23 10 42 2 45 -19z"/>
<path d="M8240 391 c0 -6 4 -12 9 -15 12 -8 21 -46 11 -46 -4 0 -10 9 -13 21
-9 34 -42 20 -42 -18 -1 -33 -21 -66 -36 -57 -15 9 -10 34 6 34 8 0 15 5 15
10 0 17 -28 11 -42 -9 -7 -10 -22 -20 -33 -22 -26 -5 -32 -51 -9 -70 14 -12
19 -10 38 12 12 14 27 24 33 22 6 -2 18 5 25 16 8 12 17 19 20 16 2 -3 18 7
35 23 29 26 29 28 16 60 -12 30 -33 44 -33 23z m0 -71 c0 -5 -5 -10 -11 -10
-5 0 -7 5 -4 10 3 6 8 10 11 10 2 0 4 -4 4 -10z m-110 -71 c0 -11 -4 -17 -10
-14 -5 3 -10 13 -10 21 0 8 5 14 10 14 6 0 10 -9 10 -21z"/>
<path d="M7331 367 c-1 -12 -6 -16 -13 -11 -7 4 -5 -1 4 -11 22 -24 35 -12 20
17 -9 19 -11 20 -11 5z"/>
<path d="M11029 356 c-6 -13 -20 -27 -30 -29 -11 -3 -19 -13 -19 -22 0 -9 -4
-13 -10 -10 -5 3 -10 2 -10 -4 0 -6 -6 -8 -14 -5 -7 3 -16 -2 -19 -11 -7 -16
-54 -40 -74 -36 -6 1 -14 -12 -18 -28 -4 -19 -11 -28 -19 -25 -8 3 -16 -2 -20
-11 -3 -9 -10 -13 -16 -10 -5 3 -10 0 -10 -8 0 -10 -9 -13 -31 -11 -61 7 -90
-34 -50 -70 18 -17 21 -17 45 -1 30 20 30 20 16 46 -8 13 -7 19 0 19 6 0 13
-7 16 -15 8 -19 24 -19 24 0 0 8 6 14 13 12 6 -1 11 5 10 13 -2 10 6 16 24 17
15 0 32 8 38 16 6 8 19 16 30 19 13 2 20 11 19 25 0 18 3 20 18 12 14 -7 18
-6 18 6 0 9 5 13 10 10 6 -3 10 1 10 10 0 9 6 15 13 14 26 -3 37 2 37 16 0 8
6 12 13 9 8 -3 20 2 27 10 10 13 9 20 -4 41 -20 31 -24 31 -37 1z m28 -32 c-9
-9 -28 6 -21 18 4 6 10 6 17 -1 6 -6 8 -13 4 -17z m-46 -21 c13 -16 12 -17 -3
-4 -10 7 -18 15 -18 17 0 8 8 3 21 -13z m-101 -73 c0 -5 -4 -10 -10 -10 -5 0
-10 5 -10 10 0 6 5 10 10 10 6 0 10 -4 10 -10z m-42 -39 c3 -8 -1 -12 -9 -9
-7 2 -15 10 -17 17 -3 8 1 12 9 9 7 -2 15 -10 17 -17z m-133 -71 c12 -37 -20
-55 -45 -25 -10 12 -10 18 0 30 17 21 37 19 45 -5z"/>
<path d="M11637 373 c-15 -14 -6 -33 16 -33 21 -1 21 -1 3 -12 -15 -8 -21 -8
-24 0 -2 7 -15 12 -29 12 -22 0 -24 -3 -18 -32 l6 -33 -18 28 c-10 15 -21 27
-25 27 -14 0 -8 -24 11 -47 18 -21 20 -22 50 -7 17 8 35 23 41 32 5 9 10 13
10 8 0 -5 9 -1 20 9 19 17 19 19 4 37 -18 19 -36 23 -47 11z"/>
<path d="M7274 338 c-5 -7 -3 -8 6 -3 9 5 10 2 5 -14 -4 -12 -2 -21 4 -21 6 0
11 5 11 11 0 5 5 7 10 4 14 -9 13 8 -2 23 -15 15 -25 15 -34 0z"/>
<path d="M7214 319 c-8 -14 16 -61 30 -56 17 6 29 34 23 51 -7 18 -42 22 -53
5z m44 -22 c2 -10 -3 -17 -12 -17 -9 0 -16 2 -16 4 0 2 -3 12 -6 21 -5 13 -2
16 12 13 10 -2 20 -11 22 -21z"/>
<path d="M8357 314 c-3 -4 0 -19 8 -35 8 -15 15 -34 14 -41 0 -7 -7 4 -16 25
-18 43 -36 50 -28 10 l6 -28 -16 25 c-9 14 -14 17 -11 7 7 -23 -14 -57 -31
-50 -7 3 -13 -2 -13 -11 0 -10 -6 -13 -15 -10 -20 8 -18 -6 4 -33 24 -28 31
-29 31 -3 0 13 5 18 15 14 11 -5 15 1 15 22 1 24 2 26 10 12 10 -16 12 -16 40
0 16 9 30 20 30 23 0 15 -37 79 -43 73z"/>
<path d="M7630 295 c-7 -8 -10 -25 -6 -40 9 -37 26 -31 20 8 l-6 32 21 -25
c22 -26 28 -13 11 21 -13 23 -23 24 -40 4z"/>
<path d="M8823 279 c6 -22 3 -25 -15 -25 -17 1 -24 -6 -29 -29 -4 -16 -7 -24
-8 -17 -2 23 -40 13 -47 -13 -3 -14 -10 -22 -15 -19 -5 3 -9 0 -9 -6 0 -7 -7
-10 -15 -6 -10 4 -15 -1 -15 -14 0 -13 -5 -18 -15 -14 -21 8 -19 -9 3 -29 23
-21 32 -21 32 -1 0 10 6 14 15 10 11 -4 15 2 15 21 0 20 3 23 14 14 17 -14 46
-4 46 16 0 13 -3 13 -15 3 -9 -8 -15 -8 -15 -2 0 13 36 25 50 17 17 -11 41 16
35 39 -3 12 -2 15 1 9 8 -18 24 -16 24 3 0 8 5 12 10 9 13 -8 50 4 50 16 0 6
-9 7 -21 4 -16 -5 -22 -2 -26 15 -4 15 -8 18 -14 9 -6 -10 -11 -10 -25 2 -16
13 -17 12 -11 -12z m-3 -69 c0 -5 -5 -10 -11 -10 -5 0 -7 5 -4 10 3 6 8 10 11
10 2 0 4 -4 4 -10z"/>
<path d="M11495 270 c-7 -11 23 -65 31 -57 2 2 1 18 -2 35 -7 32 -18 40 -29
22z"/>
<path d="M11787 273 c-8 -13 2 -43 14 -43 10 0 10 8 0 34 -5 12 -10 16 -14 9z"/>
<path d="M7570 250 c-6 -11 -17 -20 -26 -20 -12 0 -12 -5 2 -32 10 -18 19 -27
21 -20 3 6 16 12 29 12 20 0 24 5 24 28 0 27 -15 52 -32 52 -4 0 -12 -9 -18
-20z m40 -25 c0 -8 -7 -15 -15 -15 -8 0 -15 7 -15 15 0 8 7 15 15 15 8 0 15
-7 15 -15z"/>
<path d="M10350 255 c-7 -8 -13 -25 -14 -39 -1 -21 -3 -22 -20 -11 -16 12 -24
9 -67 -21 -43 -31 -47 -38 -36 -55 12 -19 27 -26 27 -11 0 4 -5 13 -12 20 -16
16 4 16 21 -1 11 -10 12 -8 6 11 -8 26 3 29 21 5 7 -10 14 -13 14 -6 0 6 -4
15 -10 18 -15 9 -12 22 6 29 12 4 14 1 9 -13 -10 -32 12 -33 38 -1 14 16 33
30 41 30 9 0 16 5 16 11 0 5 -6 7 -12 3 -10 -6 -10 -5 0 8 10 12 10 18 -2 27
-10 9 -16 8 -26 -4z"/>
<path d="M8071 243 c-1 -17 -6 -20 -23 -16 l-23 6 24 -27 c30 -32 42 -23 31
24 -5 22 -8 27 -9 13z"/>
<path d="M10310 241 c0 -5 5 -13 10 -16 6 -3 10 -2 10 4 0 5 -4 13 -10 16 -5
3 -10 2 -10 -4z"/>
<path d="M11475 225 c6 -28 6 -29 -13 -12 -22 20 -36 22 -29 4 3 -9 -2 -13
-15 -13 -31 1 -47 -30 -26 -50 20 -20 58 -10 58 16 0 13 5 17 18 13 10 -2 24
3 32 12 11 14 10 19 -10 38 l-22 22 7 -30z m-45 -56 c0 -5 -4 -9 -10 -9 -5 0
-10 7 -10 16 0 8 5 12 10 9 6 -3 10 -10 10 -16z"/>
<path d="M11733 237 c-4 -8 -16 -16 -25 -20 -22 -8 -23 -30 -3 -47 17 -14 35
-5 35 17 0 8 6 13 13 10 23 -9 40 8 32 32 -7 23 -40 28 -52 8z m42 -6 c3 -5 0
-13 -6 -17 -7 -4 -9 -3 -5 4 3 5 0 13 -6 15 -9 4 -10 6 -1 6 6 1 14 -3 18 -8z"/>
<path d="M7500 221 c0 -14 34 -71 43 -71 9 0 9 7 -2 28 -5 9 -12 25 -15 35 -6
18 -26 24 -26 8z"/>
<path d="M7730 207 c0 -13 5 -28 12 -35 9 -9 9 -12 0 -12 -7 0 -12 5 -12 10 0
18 -29 11 -40 -10 -8 -14 -8 -26 0 -41 14 -25 41 -21 56 9 6 12 14 19 17 15
10 -9 9 6 -4 50 -11 41 -29 50 -29 14z m0 -73 c0 -16 -16 -19 -25 -4 -8 13 4
32 16 25 5 -4 9 -13 9 -21z"/>
<path d="M7983 199 c-6 -6 -9 -19 -5 -28 5 -14 4 -14 -11 -2 -34 27 -62 -24
-34 -63 17 -24 47 -11 47 21 0 22 2 24 16 12 14 -11 15 -9 8 27 -8 47 -8 46
-21 33z m-13 -64 c0 -8 -7 -15 -15 -15 -8 0 -15 7 -15 15 0 8 7 15 15 15 8 0
15 -7 15 -15z"/>
<path d="M11633 165 c-22 -22 -29 -36 -22 -46 15 -24 10 -30 -13 -17 -13 6
-31 13 -42 15 -15 3 -16 1 -7 -11 10 -12 8 -15 -11 -18 -13 -2 -27 -13 -33
-25 -5 -13 -16 -23 -24 -23 -11 0 -11 -3 -1 -15 16 -19 34 -20 27 -1 -7 17 21
58 34 51 15 -10 10 -28 -6 -21 -8 3 -15 1 -15 -5 0 -6 10 -9 23 -7 12 2 22 10
21 18 -1 9 9 16 24 17 28 1 63 39 55 60 -6 17 9 17 26 1 11 -11 11 -9 1 12
l-13 25 22 -19 c25 -23 28 -10 3 20 l-17 21 -32 -32z m-49 -71 c3 -8 2 -12 -4
-9 -6 3 -10 10 -10 16 0 14 7 11 14 -7z"/>
<path d="M7466 181 c-10 -15 6 -71 19 -71 25 0 39 29 27 55 -12 25 -36 33 -46
16z m24 -15 c0 -3 -4 -8 -10 -11 -5 -3 -10 -1 -10 4 0 6 5 11 10 11 6 0 10 -2
10 -4z"/>
<path d="M8167 183 c-4 -3 -7 -15 -7 -27 0 -20 0 -20 14 0 20 27 28 14 14 -24
-14 -35 -5 -51 19 -36 23 14 29 36 9 28 -14 -5 -15 -2 -8 17 5 13 7 30 5 37
-5 13 -35 17 -46 5z"/>
<path d="M11361 163 c-1 -17 -6 -20 -23 -16 -22 4 -21 3 5 -19 15 -13 27 -29
27 -36 0 -7 5 -12 10 -12 14 0 12 39 -5 75 -11 26 -13 27 -14 8z"/>
<path d="M7414 145 c-7 -13 -8 -29 -3 -37 5 -7 9 -20 8 -28 0 -8 -7 2 -16 23
-8 20 -19 37 -24 37 -12 0 -11 -5 5 -45 16 -37 25 -42 44 -23 8 8 8 17 1 30
-6 11 -8 22 -6 25 3 2 10 -5 17 -16 16 -31 32 -26 18 7 -20 47 -32 54 -44 27z"/>
<path d="M8412 157 c-7 -8 -9 -17 -5 -21 4 -4 0 -4 -10 0 -20 7 -21 1 -6 -28
7 -13 7 -24 1 -30 -7 -7 -12 -3 -17 11 -3 12 -10 21 -15 21 -5 0 -7 -6 -4 -13
3 -9 -4 -13 -22 -12 -20 0 -31 -8 -44 -32 -13 -24 -20 -29 -28 -21 -17 17 -27
1 -12 -17 19 -23 49 -20 43 5 -7 25 5 26 22 3 11 -15 15 -15 29 -4 9 7 16 23
16 35 0 17 2 18 10 6 15 -24 45 1 43 35 -2 26 -1 27 13 9 13 -17 14 -16 8 21
-8 49 -8 49 -22 32z m-72 -109 c0 -17 -3 -18 -14 -8 -8 6 -12 18 -9 26 7 19
23 7 23 -18z"/>
<path d="M7620 120 c0 -25 49 -83 50 -58 0 9 -4 20 -10 23 -5 3 -10 14 -10 25
0 10 -7 20 -15 24 -10 3 -15 -1 -15 -14z"/>
<path d="M10170 125 c-10 -12 -10 -18 0 -30 26 -31 59 -11 40 25 -13 24 -23
25 -40 5z m40 -19 c0 -3 -4 -8 -10 -11 -5 -3 -10 -1 -10 4 0 6 5 11 10 11 6 0
10 -2 10 -4z"/>
<path d="M6948 112 c-21 -14 -25 -21 -16 -30 8 -8 6 -10 -9 -6 -21 6 -41 -12
-28 -24 3 -3 10 0 14 7 6 9 11 10 15 3 12 -19 37 -1 31 22 -2 11 -2 15 1 9 9
-19 24 -15 17 4 -5 13 -2 15 12 10 15 -6 16 -5 5 8 -15 18 -10 18 -42 -3z"/>
<path d="M8100 119 c0 -7 -7 -17 -16 -23 -13 -10 -14 -16 -3 -39 16 -36 30
-34 23 3 -4 19 -2 30 5 30 6 0 11 -6 11 -14 0 -16 18 -31 26 -23 3 3 1 13 -5
24 -5 10 -12 26 -15 36 -6 19 -26 24 -26 6z"/>
<path d="M8580 112 c1 -22 36 -69 46 -59 4 4 2 13 -4 19 -7 7 -12 20 -12 29 0
9 -7 19 -15 23 -10 3 -15 -1 -15 -12z"/>
<path d="M10130 112 c0 -11 9 -27 20 -37 24 -22 25 -14 5 25 -18 34 -25 38
-25 12z"/>
<path d="M7822 91 c-7 -15 -9 -37 -5 -47 7 -18 6 -18 -11 -1 -17 16 -19 16
-46 -5 -34 -27 -37 -38 -11 -38 11 0 21 9 24 21 6 23 27 17 27 -7 0 -8 5 -14
10 -14 6 0 10 5 10 11 0 5 5 7 11 4 7 -5 8 5 4 32 l-6 38 20 -25 c16 -19 21
-21 21 -8 0 11 6 15 23 11 20 -4 21 -3 5 10 -10 8 -18 22 -18 32 0 14 -3 15
-15 5 -10 -9 -15 -9 -15 -1 0 21 -15 11 -28 -18z"/>
<path d="M11268 109 c-10 -5 -18 -17 -18 -26 0 -8 -6 -13 -13 -10 -7 3 -21 -1
-31 -9 -18 -12 -18 -15 -2 -39 21 -33 30 -32 21 2 -5 23 -4 26 6 15 15 -14 43
-16 34 -2 -3 6 -1 10 4 10 6 0 11 -5 11 -11 0 -17 44 -6 48 12 2 9 -7 28 -20
43 -18 20 -27 23 -40 15z m22 -29 c0 -5 -4 -10 -10 -10 -5 0 -10 5 -10 10 0 6
5 10 10 10 6 0 10 -4 10 -10z"/>
<path d="M11928 102 c-7 -11 -22 -21 -33 -24 -16 -3 -20 -11 -18 -38 2 -30 1
-32 -7 -12 -11 26 -23 28 -40 7 -11 -13 -10 -14 4 -9 9 3 16 2 16 -4 0 -6 -6
-12 -12 -14 -7 -3 5 -5 27 -6 34 -1 43 3 58 26 9 15 17 21 17 15 0 -7 5 -13
12 -13 6 0 8 3 5 7 -4 3 -2 12 5 20 9 11 8 13 -2 11 -8 -2 -16 6 -18 16 -3 14
0 17 13 12 11 -4 15 -2 13 6 -7 20 -25 20 -40 0z m-14 -63 c-10 -16 -24 -9
-24 12 0 18 2 19 15 9 8 -7 12 -16 9 -21z"/>
<path d="M7360 94 c0 -15 -48 -24 -53 -10 -2 6 -8 7 -13 3 -4 -4 -3 -17 4 -27
16 -26 16 -26 -15 -25 -18 0 -28 -5 -28 -15 0 -11 12 -15 50 -15 41 0 51 4 61
22 6 13 14 20 17 16 4 -3 7 0 7 8 0 18 -29 59 -30 43z m-10 -50 c0 -14 -12
-19 -23 -8 -9 9 4 35 14 28 5 -3 9 -12 9 -20z"/>
<path d="M7580 85 c-10 -12 -10 -21 -2 -40 16 -34 35 -33 21 1 -5 15 -7 29 -5
31 8 8 26 -8 26 -23 0 -8 5 -14 10 -14 13 0 13 3 -2 35 -13 28 -30 32 -48 10z"/>
<path d="M8547 83 c-16 -16 -6 -43 16 -43 20 -1 21 -1 4 -11 -15 -9 -22 -7
-34 11 -14 20 -16 20 -34 4 -15 -13 -16 -19 -5 -30 17 -16 74 -10 94 10 19 19
8 50 -14 42 -14 -5 -15 -4 -4 9 10 12 10 15 -2 15 -8 0 -18 -3 -21 -7z m-27
-53 c0 -5 -5 -10 -11 -10 -5 0 -7 5 -4 10 3 6 8 10 11 10 2 0 4 -4 4 -10z"/>
<path d="M10058 73 c-16 -10 -28 -20 -28 -23 1 -12 40 -54 40 -43 0 6 -4 15
-10 18 -16 10 -12 32 7 39 9 4 23 0 32 -8 13 -14 13 -18 -4 -36 -10 -11 -14
-20 -8 -20 5 0 18 8 27 19 16 18 16 20 -6 45 -22 25 -24 25 -50 9z"/>
<path d="M8032 57 c-18 -21 -3 -57 24 -57 32 0 38 15 18 45 -18 28 -27 31 -42
12z"/>
<path d="M10600 62 c0 -16 -24 -42 -39 -42 -5 0 -13 -5 -16 -10 -4 -6 8 -10
30 -10 32 0 36 3 30 20 -3 11 -2 20 4 20 5 0 11 -10 14 -22 3 -21 4 -21 12 -5
5 13 2 25 -14 40 -13 13 -21 16 -21 9z"/>
<path d="M7527 53 c-13 -13 -7 -53 8 -53 8 0 15 5 15 10 0 6 5 10 11 10 5 0 7
-5 4 -10 -3 -6 -1 -10 4 -10 13 0 13 2 1 34 -9 25 -29 34 -43 19z"/>
<path d="M11156 52 c-7 -11 29 -55 42 -51 6 2 0 16 -13 31 -13 16 -26 24 -29
20z"/>
<path d="M6855 40 c-3 -5 -12 -7 -20 -3 -9 3 -15 -1 -15 -10 0 -31 58 -36 82
-8 15 18 15 20 -5 25 -30 8 -35 7 -42 -4z m30 -10 c3 -5 1 -10 -4 -10 -6 0
-11 5 -11 10 0 6 2 10 4 10 3 0 8 -4 11 -10z"/>
<path d="M7958 39 c-22 -12 -24 -39 -3 -39 8 0 14 5 13 11 -2 6 3 14 11 17 10
3 12 0 8 -12 -4 -10 -1 -16 9 -16 10 0 14 8 12 22 -3 26 -24 33 -50 17z"/>
<path d="M7477 20 c-4 -15 0 -20 14 -20 22 0 25 13 5 29 -11 9 -15 7 -19 -9z"/>
<path d="M6780 10 c0 -5 5 -10 11 -10 5 0 7 5 4 10 -3 6 -8 10 -11 10 -2 0 -4
-4 -4 -10z"/>
<path d="M8445 10 c-3 -5 3 -10 15 -10 12 0 18 5 15 10 -3 6 -10 10 -15 10 -5
0 -12 -4 -15 -10z"/>
<path d="M11100 8 c0 -4 14 -8 30 -8 17 0 30 4 30 8 0 5 -13 9 -30 9 -16 0
-30 -4 -30 -9z"/>
<path d="M11415 10 c-3 -5 1 -10 10 -10 9 0 13 5 10 10 -3 6 -8 10 -10 10 -2
0 -7 -4 -10 -10z"/>
<path d="M8188 3 c7 -3 16 -2 19 1 4 3 -2 6 -13 5 -11 0 -14 -3 -6 -6z"/>
</g>
</svg>
